ISO-10303-21;
HEADER;
/* Generated by software containing ST-Developer
 * from STEP Tools, Inc. (www.steptools.com) 
 */

FILE_DESCRIPTION(
/* description */ (''),
/* implementation_level */ '2;1');

FILE_NAME(
/* name */ 'plateau vf2.step',
/* time_stamp */ '2026-02-21T15:26:35+01:00',
/* author */ (''),
/* organization */ (''),
/* preprocessor_version */ 'ST-DEVELOPER v20.1',
/* originating_system */ 'Autodesk Translation Framework v14.24.0.0',
/* authorisation */ '');

FILE_SCHEMA (('AUTOMOTIVE_DESIGN { 1 0 10303 214 3 1 1 }'));
ENDSEC;

DATA;
#10=MECHANICAL_DESIGN_GEOMETRIC_PRESENTATION_REPRESENTATION('',(#71,#72,
#73,#74,#75,#76,#77,#78,#79,#80),#1799);
#11=ITEM_DEFINED_TRANSFORMATION($,$,#1133,#1203);
#12=ITEM_DEFINED_TRANSFORMATION($,$,#1140,#1204);
#13=ITEM_DEFINED_TRANSFORMATION($,$,#1147,#1205);
#14=ITEM_DEFINED_TRANSFORMATION($,$,#1154,#1206);
#15=ITEM_DEFINED_TRANSFORMATION($,$,#1161,#1207);
#16=ITEM_DEFINED_TRANSFORMATION($,$,#1168,#1208);
#17=ITEM_DEFINED_TRANSFORMATION($,$,#1175,#1209);
#18=ITEM_DEFINED_TRANSFORMATION($,$,#1182,#1210);
#19=ITEM_DEFINED_TRANSFORMATION($,$,#1189,#1211);
#20=ITEM_DEFINED_TRANSFORMATION($,$,#1196,#1212);
#21=(
REPRESENTATION_RELATIONSHIP($,$,#1837,#1836)
REPRESENTATION_RELATIONSHIP_WITH_TRANSFORMATION(#11)
SHAPE_REPRESENTATION_RELATIONSHIP()
);
#22=(
REPRESENTATION_RELATIONSHIP($,$,#1838,#1836)
REPRESENTATION_RELATIONSHIP_WITH_TRANSFORMATION(#12)
SHAPE_REPRESENTATION_RELATIONSHIP()
);
#23=(
REPRESENTATION_RELATIONSHIP($,$,#1839,#1836)
REPRESENTATION_RELATIONSHIP_WITH_TRANSFORMATION(#13)
SHAPE_REPRESENTATION_RELATIONSHIP()
);
#24=(
REPRESENTATION_RELATIONSHIP($,$,#1840,#1836)
REPRESENTATION_RELATIONSHIP_WITH_TRANSFORMATION(#14)
SHAPE_REPRESENTATION_RELATIONSHIP()
);
#25=(
REPRESENTATION_RELATIONSHIP($,$,#1841,#1836)
REPRESENTATION_RELATIONSHIP_WITH_TRANSFORMATION(#15)
SHAPE_REPRESENTATION_RELATIONSHIP()
);
#26=(
REPRESENTATION_RELATIONSHIP($,$,#1842,#1836)
REPRESENTATION_RELATIONSHIP_WITH_TRANSFORMATION(#16)
SHAPE_REPRESENTATION_RELATIONSHIP()
);
#27=(
REPRESENTATION_RELATIONSHIP($,$,#1843,#1836)
REPRESENTATION_RELATIONSHIP_WITH_TRANSFORMATION(#17)
SHAPE_REPRESENTATION_RELATIONSHIP()
);
#28=(
REPRESENTATION_RELATIONSHIP($,$,#1844,#1836)
REPRESENTATION_RELATIONSHIP_WITH_TRANSFORMATION(#18)
SHAPE_REPRESENTATION_RELATIONSHIP()
);
#29=(
REPRESENTATION_RELATIONSHIP($,$,#1845,#1836)
REPRESENTATION_RELATIONSHIP_WITH_TRANSFORMATION(#19)
SHAPE_REPRESENTATION_RELATIONSHIP()
);
#30=(
REPRESENTATION_RELATIONSHIP($,$,#1846,#1836)
REPRESENTATION_RELATIONSHIP_WITH_TRANSFORMATION(#20)
SHAPE_REPRESENTATION_RELATIONSHIP()
);
#31=CONTEXT_DEPENDENT_SHAPE_REPRESENTATION(#21,#1826);
#32=CONTEXT_DEPENDENT_SHAPE_REPRESENTATION(#22,#1827);
#33=CONTEXT_DEPENDENT_SHAPE_REPRESENTATION(#23,#1828);
#34=CONTEXT_DEPENDENT_SHAPE_REPRESENTATION(#24,#1829);
#35=CONTEXT_DEPENDENT_SHAPE_REPRESENTATION(#25,#1830);
#36=CONTEXT_DEPENDENT_SHAPE_REPRESENTATION(#26,#1831);
#37=CONTEXT_DEPENDENT_SHAPE_REPRESENTATION(#27,#1832);
#38=CONTEXT_DEPENDENT_SHAPE_REPRESENTATION(#28,#1833);
#39=CONTEXT_DEPENDENT_SHAPE_REPRESENTATION(#29,#1834);
#40=CONTEXT_DEPENDENT_SHAPE_REPRESENTATION(#30,#1835);
#41=NEXT_ASSEMBLY_USAGE_OCCURRENCE('Composant1:1','Composant1:1',
'Composant1:1',#1848,#1849,'Composant1:1');
#42=NEXT_ASSEMBLY_USAGE_OCCURRENCE('Composant2:1','Composant2:1',
'Composant2:1',#1848,#1850,'Composant2:1');
#43=NEXT_ASSEMBLY_USAGE_OCCURRENCE('Composant3:1','Composant3:1',
'Composant3:1',#1848,#1851,'Composant3:1');
#44=NEXT_ASSEMBLY_USAGE_OCCURRENCE('Composant4:1','Composant4:1',
'Composant4:1',#1848,#1852,'Composant4:1');
#45=NEXT_ASSEMBLY_USAGE_OCCURRENCE('Composant5:1','Composant5:1',
'Composant5:1',#1848,#1853,'Composant5:1');
#46=NEXT_ASSEMBLY_USAGE_OCCURRENCE('Composant6:1','Composant6:1',
'Composant6:1',#1848,#1854,'Composant6:1');
#47=NEXT_ASSEMBLY_USAGE_OCCURRENCE('Composant7:1','Composant7:1',
'Composant7:1',#1848,#1855,'Composant7:1');
#48=NEXT_ASSEMBLY_USAGE_OCCURRENCE('Composant8:1','Composant8:1',
'Composant8:1',#1848,#1856,'Composant8:1');
#49=NEXT_ASSEMBLY_USAGE_OCCURRENCE('Composant9:1','Composant9:1',
'Composant9:1',#1848,#1857,'Composant9:1');
#50=NEXT_ASSEMBLY_USAGE_OCCURRENCE('Composant10:1','Composant10:1',
'Composant10:1',#1848,#1858,'Composant10:1');
#51=SHAPE_REPRESENTATION_RELATIONSHIP('SRR','None',#1837,#61);
#52=SHAPE_REPRESENTATION_RELATIONSHIP('SRR','None',#1838,#62);
#53=SHAPE_REPRESENTATION_RELATIONSHIP('SRR','None',#1839,#63);
#54=SHAPE_REPRESENTATION_RELATIONSHIP('SRR','None',#1840,#64);
#55=SHAPE_REPRESENTATION_RELATIONSHIP('SRR','None',#1841,#65);
#56=SHAPE_REPRESENTATION_RELATIONSHIP('SRR','None',#1842,#66);
#57=SHAPE_REPRESENTATION_RELATIONSHIP('SRR','None',#1843,#67);
#58=SHAPE_REPRESENTATION_RELATIONSHIP('SRR','None',#1844,#68);
#59=SHAPE_REPRESENTATION_RELATIONSHIP('SRR','None',#1845,#69);
#60=SHAPE_REPRESENTATION_RELATIONSHIP('SRR','None',#1846,#70);
#61=ADVANCED_BREP_SHAPE_REPRESENTATION('',(#81),#1789);
#62=ADVANCED_BREP_SHAPE_REPRESENTATION('',(#82),#1790);
#63=ADVANCED_BREP_SHAPE_REPRESENTATION('',(#83),#1791);
#64=ADVANCED_BREP_SHAPE_REPRESENTATION('',(#84),#1792);
#65=ADVANCED_BREP_SHAPE_REPRESENTATION('',(#85),#1793);
#66=ADVANCED_BREP_SHAPE_REPRESENTATION('',(#86),#1794);
#67=ADVANCED_BREP_SHAPE_REPRESENTATION('',(#87),#1795);
#68=ADVANCED_BREP_SHAPE_REPRESENTATION('',(#88),#1796);
#69=ADVANCED_BREP_SHAPE_REPRESENTATION('',(#89),#1797);
#70=ADVANCED_BREP_SHAPE_REPRESENTATION('',(#90),#1798);
#71=STYLED_ITEM('',(#1895),#81);
#72=STYLED_ITEM('',(#1895),#82);
#73=STYLED_ITEM('',(#1895),#83);
#74=STYLED_ITEM('',(#1895),#84);
#75=STYLED_ITEM('',(#1895),#85);
#76=STYLED_ITEM('',(#1895),#86);
#77=STYLED_ITEM('',(#1895),#87);
#78=STYLED_ITEM('',(#1895),#88);
#79=STYLED_ITEM('',(#1895),#89);
#80=STYLED_ITEM('',(#1895),#90);
#81=MANIFOLD_SOLID_BREP('Corps1',#1011);
#82=MANIFOLD_SOLID_BREP('Corps1',#1012);
#83=MANIFOLD_SOLID_BREP('Corps1',#1013);
#84=MANIFOLD_SOLID_BREP('Corps1',#1014);
#85=MANIFOLD_SOLID_BREP('Corps1',#1015);
#86=MANIFOLD_SOLID_BREP('Corps1',#1016);
#87=MANIFOLD_SOLID_BREP('Corps1',#1017);
#88=MANIFOLD_SOLID_BREP('Corps1',#1018);
#89=MANIFOLD_SOLID_BREP('Corps1',#1019);
#90=MANIFOLD_SOLID_BREP('Corps1',#1020);
#91=FACE_OUTER_BOUND('',#151,.T.);
#92=FACE_OUTER_BOUND('',#152,.T.);
#93=FACE_OUTER_BOUND('',#153,.T.);
#94=FACE_OUTER_BOUND('',#154,.T.);
#95=FACE_OUTER_BOUND('',#155,.T.);
#96=FACE_OUTER_BOUND('',#156,.T.);
#97=FACE_OUTER_BOUND('',#157,.T.);
#98=FACE_OUTER_BOUND('',#158,.T.);
#99=FACE_OUTER_BOUND('',#159,.T.);
#100=FACE_OUTER_BOUND('',#160,.T.);
#101=FACE_OUTER_BOUND('',#161,.T.);
#102=FACE_OUTER_BOUND('',#162,.T.);
#103=FACE_OUTER_BOUND('',#163,.T.);
#104=FACE_OUTER_BOUND('',#164,.T.);
#105=FACE_OUTER_BOUND('',#165,.T.);
#106=FACE_OUTER_BOUND('',#166,.T.);
#107=FACE_OUTER_BOUND('',#167,.T.);
#108=FACE_OUTER_BOUND('',#168,.T.);
#109=FACE_OUTER_BOUND('',#169,.T.);
#110=FACE_OUTER_BOUND('',#170,.T.);
#111=FACE_OUTER_BOUND('',#171,.T.);
#112=FACE_OUTER_BOUND('',#172,.T.);
#113=FACE_OUTER_BOUND('',#173,.T.);
#114=FACE_OUTER_BOUND('',#174,.T.);
#115=FACE_OUTER_BOUND('',#175,.T.);
#116=FACE_OUTER_BOUND('',#176,.T.);
#117=FACE_OUTER_BOUND('',#177,.T.);
#118=FACE_OUTER_BOUND('',#178,.T.);
#119=FACE_OUTER_BOUND('',#179,.T.);
#120=FACE_OUTER_BOUND('',#180,.T.);
#121=FACE_OUTER_BOUND('',#181,.T.);
#122=FACE_OUTER_BOUND('',#182,.T.);
#123=FACE_OUTER_BOUND('',#183,.T.);
#124=FACE_OUTER_BOUND('',#184,.T.);
#125=FACE_OUTER_BOUND('',#185,.T.);
#126=FACE_OUTER_BOUND('',#186,.T.);
#127=FACE_OUTER_BOUND('',#187,.T.);
#128=FACE_OUTER_BOUND('',#188,.T.);
#129=FACE_OUTER_BOUND('',#189,.T.);
#130=FACE_OUTER_BOUND('',#190,.T.);
#131=FACE_OUTER_BOUND('',#191,.T.);
#132=FACE_OUTER_BOUND('',#192,.T.);
#133=FACE_OUTER_BOUND('',#193,.T.);
#134=FACE_OUTER_BOUND('',#194,.T.);
#135=FACE_OUTER_BOUND('',#195,.T.);
#136=FACE_OUTER_BOUND('',#196,.T.);
#137=FACE_OUTER_BOUND('',#197,.T.);
#138=FACE_OUTER_BOUND('',#198,.T.);
#139=FACE_OUTER_BOUND('',#199,.T.);
#140=FACE_OUTER_BOUND('',#200,.T.);
#141=FACE_OUTER_BOUND('',#201,.T.);
#142=FACE_OUTER_BOUND('',#202,.T.);
#143=FACE_OUTER_BOUND('',#203,.T.);
#144=FACE_OUTER_BOUND('',#204,.T.);
#145=FACE_OUTER_BOUND('',#205,.T.);
#146=FACE_OUTER_BOUND('',#206,.T.);
#147=FACE_OUTER_BOUND('',#207,.T.);
#148=FACE_OUTER_BOUND('',#208,.T.);
#149=FACE_OUTER_BOUND('',#209,.T.);
#150=FACE_OUTER_BOUND('',#210,.T.);
#151=EDGE_LOOP('',(#651,#652,#653,#654));
#152=EDGE_LOOP('',(#655,#656,#657,#658));
#153=EDGE_LOOP('',(#659,#660,#661,#662));
#154=EDGE_LOOP('',(#663,#664,#665,#666));
#155=EDGE_LOOP('',(#667,#668,#669,#670));
#156=EDGE_LOOP('',(#671,#672,#673,#674));
#157=EDGE_LOOP('',(#675,#676,#677,#678));
#158=EDGE_LOOP('',(#679,#680,#681,#682));
#159=EDGE_LOOP('',(#683,#684,#685,#686));
#160=EDGE_LOOP('',(#687,#688,#689,#690));
#161=EDGE_LOOP('',(#691,#692,#693,#694));
#162=EDGE_LOOP('',(#695,#696,#697,#698));
#163=EDGE_LOOP('',(#699,#700,#701,#702));
#164=EDGE_LOOP('',(#703,#704,#705,#706));
#165=EDGE_LOOP('',(#707,#708,#709,#710));
#166=EDGE_LOOP('',(#711,#712,#713,#714));
#167=EDGE_LOOP('',(#715,#716,#717,#718));
#168=EDGE_LOOP('',(#719,#720,#721,#722));
#169=EDGE_LOOP('',(#723,#724,#725,#726));
#170=EDGE_LOOP('',(#727,#728,#729,#730));
#171=EDGE_LOOP('',(#731,#732,#733,#734));
#172=EDGE_LOOP('',(#735,#736,#737,#738));
#173=EDGE_LOOP('',(#739,#740,#741,#742));
#174=EDGE_LOOP('',(#743,#744,#745,#746));
#175=EDGE_LOOP('',(#747,#748,#749,#750));
#176=EDGE_LOOP('',(#751,#752,#753,#754));
#177=EDGE_LOOP('',(#755,#756,#757,#758));
#178=EDGE_LOOP('',(#759,#760,#761,#762));
#179=EDGE_LOOP('',(#763,#764,#765,#766));
#180=EDGE_LOOP('',(#767,#768,#769,#770));
#181=EDGE_LOOP('',(#771,#772,#773,#774));
#182=EDGE_LOOP('',(#775,#776,#777,#778));
#183=EDGE_LOOP('',(#779,#780,#781,#782));
#184=EDGE_LOOP('',(#783,#784,#785,#786));
#185=EDGE_LOOP('',(#787,#788,#789,#790));
#186=EDGE_LOOP('',(#791,#792,#793,#794));
#187=EDGE_LOOP('',(#795,#796,#797,#798));
#188=EDGE_LOOP('',(#799,#800,#801,#802));
#189=EDGE_LOOP('',(#803,#804,#805,#806));
#190=EDGE_LOOP('',(#807,#808,#809,#810));
#191=EDGE_LOOP('',(#811,#812,#813,#814));
#192=EDGE_LOOP('',(#815,#816,#817,#818));
#193=EDGE_LOOP('',(#819,#820,#821,#822));
#194=EDGE_LOOP('',(#823,#824,#825,#826));
#195=EDGE_LOOP('',(#827,#828,#829,#830));
#196=EDGE_LOOP('',(#831,#832,#833,#834));
#197=EDGE_LOOP('',(#835,#836,#837,#838));
#198=EDGE_LOOP('',(#839,#840,#841,#842));
#199=EDGE_LOOP('',(#843,#844,#845,#846));
#200=EDGE_LOOP('',(#847,#848,#849,#850));
#201=EDGE_LOOP('',(#851,#852,#853,#854));
#202=EDGE_LOOP('',(#855,#856,#857,#858));
#203=EDGE_LOOP('',(#859,#860,#861,#862));
#204=EDGE_LOOP('',(#863,#864,#865,#866));
#205=EDGE_LOOP('',(#867,#868,#869,#870));
#206=EDGE_LOOP('',(#871,#872,#873,#874));
#207=EDGE_LOOP('',(#875,#876,#877,#878));
#208=EDGE_LOOP('',(#879,#880,#881,#882));
#209=EDGE_LOOP('',(#883,#884,#885,#886));
#210=EDGE_LOOP('',(#887,#888,#889,#890));
#211=LINE('',#1500,#331);
#212=LINE('',#1502,#332);
#213=LINE('',#1504,#333);
#214=LINE('',#1505,#334);
#215=LINE('',#1508,#335);
#216=LINE('',#1510,#336);
#217=LINE('',#1511,#337);
#218=LINE('',#1514,#338);
#219=LINE('',#1516,#339);
#220=LINE('',#1517,#340);
#221=LINE('',#1519,#341);
#222=LINE('',#1520,#342);
#223=LINE('',#1527,#343);
#224=LINE('',#1529,#344);
#225=LINE('',#1531,#345);
#226=LINE('',#1532,#346);
#227=LINE('',#1535,#347);
#228=LINE('',#1537,#348);
#229=LINE('',#1538,#349);
#230=LINE('',#1541,#350);
#231=LINE('',#1543,#351);
#232=LINE('',#1544,#352);
#233=LINE('',#1546,#353);
#234=LINE('',#1547,#354);
#235=LINE('',#1554,#355);
#236=LINE('',#1556,#356);
#237=LINE('',#1558,#357);
#238=LINE('',#1559,#358);
#239=LINE('',#1562,#359);
#240=LINE('',#1564,#360);
#241=LINE('',#1565,#361);
#242=LINE('',#1568,#362);
#243=LINE('',#1570,#363);
#244=LINE('',#1571,#364);
#245=LINE('',#1573,#365);
#246=LINE('',#1574,#366);
#247=LINE('',#1581,#367);
#248=LINE('',#1583,#368);
#249=LINE('',#1585,#369);
#250=LINE('',#1586,#370);
#251=LINE('',#1589,#371);
#252=LINE('',#1591,#372);
#253=LINE('',#1592,#373);
#254=LINE('',#1595,#374);
#255=LINE('',#1597,#375);
#256=LINE('',#1598,#376);
#257=LINE('',#1600,#377);
#258=LINE('',#1601,#378);
#259=LINE('',#1608,#379);
#260=LINE('',#1610,#380);
#261=LINE('',#1612,#381);
#262=LINE('',#1613,#382);
#263=LINE('',#1616,#383);
#264=LINE('',#1618,#384);
#265=LINE('',#1619,#385);
#266=LINE('',#1622,#386);
#267=LINE('',#1624,#387);
#268=LINE('',#1625,#388);
#269=LINE('',#1627,#389);
#270=LINE('',#1628,#390);
#271=LINE('',#1635,#391);
#272=LINE('',#1637,#392);
#273=LINE('',#1639,#393);
#274=LINE('',#1640,#394);
#275=LINE('',#1643,#395);
#276=LINE('',#1645,#396);
#277=LINE('',#1646,#397);
#278=LINE('',#1649,#398);
#279=LINE('',#1651,#399);
#280=LINE('',#1652,#400);
#281=LINE('',#1654,#401);
#282=LINE('',#1655,#402);
#283=LINE('',#1662,#403);
#284=LINE('',#1664,#404);
#285=LINE('',#1666,#405);
#286=LINE('',#1667,#406);
#287=LINE('',#1670,#407);
#288=LINE('',#1672,#408);
#289=LINE('',#1673,#409);
#290=LINE('',#1676,#410);
#291=LINE('',#1678,#411);
#292=LINE('',#1679,#412);
#293=LINE('',#1681,#413);
#294=LINE('',#1682,#414);
#295=LINE('',#1689,#415);
#296=LINE('',#1691,#416);
#297=LINE('',#1693,#417);
#298=LINE('',#1694,#418);
#299=LINE('',#1697,#419);
#300=LINE('',#1699,#420);
#301=LINE('',#1700,#421);
#302=LINE('',#1703,#422);
#303=LINE('',#1705,#423);
#304=LINE('',#1706,#424);
#305=LINE('',#1708,#425);
#306=LINE('',#1709,#426);
#307=LINE('',#1716,#427);
#308=LINE('',#1718,#428);
#309=LINE('',#1720,#429);
#310=LINE('',#1721,#430);
#311=LINE('',#1724,#431);
#312=LINE('',#1726,#432);
#313=LINE('',#1727,#433);
#314=LINE('',#1730,#434);
#315=LINE('',#1732,#435);
#316=LINE('',#1733,#436);
#317=LINE('',#1735,#437);
#318=LINE('',#1736,#438);
#319=LINE('',#1743,#439);
#320=LINE('',#1745,#440);
#321=LINE('',#1747,#441);
#322=LINE('',#1748,#442);
#323=LINE('',#1751,#443);
#324=LINE('',#1753,#444);
#325=LINE('',#1754,#445);
#326=LINE('',#1757,#446);
#327=LINE('',#1759,#447);
#328=LINE('',#1760,#448);
#329=LINE('',#1762,#449);
#330=LINE('',#1763,#450);
#331=VECTOR('',#1219,10.);
#332=VECTOR('',#1220,10.);
#333=VECTOR('',#1221,10.);
#334=VECTOR('',#1222,10.);
#335=VECTOR('',#1225,10.);
#336=VECTOR('',#1226,10.);
#337=VECTOR('',#1227,10.);
#338=VECTOR('',#1230,10.);
#339=VECTOR('',#1231,10.);
#340=VECTOR('',#1232,10.);
#341=VECTOR('',#1235,10.);
#342=VECTOR('',#1236,10.);
#343=VECTOR('',#1245,10.);
#344=VECTOR('',#1246,10.);
#345=VECTOR('',#1247,10.);
#346=VECTOR('',#1248,10.);
#347=VECTOR('',#1251,10.);
#348=VECTOR('',#1252,10.);
#349=VECTOR('',#1253,10.);
#350=VECTOR('',#1256,10.);
#351=VECTOR('',#1257,10.);
#352=VECTOR('',#1258,10.);
#353=VECTOR('',#1261,10.);
#354=VECTOR('',#1262,10.);
#355=VECTOR('',#1271,10.);
#356=VECTOR('',#1272,10.);
#357=VECTOR('',#1273,10.);
#358=VECTOR('',#1274,10.);
#359=VECTOR('',#1277,10.);
#360=VECTOR('',#1278,10.);
#361=VECTOR('',#1279,10.);
#362=VECTOR('',#1282,10.);
#363=VECTOR('',#1283,10.);
#364=VECTOR('',#1284,10.);
#365=VECTOR('',#1287,10.);
#366=VECTOR('',#1288,10.);
#367=VECTOR('',#1297,10.);
#368=VECTOR('',#1298,10.);
#369=VECTOR('',#1299,10.);
#370=VECTOR('',#1300,10.);
#371=VECTOR('',#1303,10.);
#372=VECTOR('',#1304,10.);
#373=VECTOR('',#1305,10.);
#374=VECTOR('',#1308,10.);
#375=VECTOR('',#1309,10.);
#376=VECTOR('',#1310,10.);
#377=VECTOR('',#1313,10.);
#378=VECTOR('',#1314,10.);
#379=VECTOR('',#1323,10.);
#380=VECTOR('',#1324,10.);
#381=VECTOR('',#1325,10.);
#382=VECTOR('',#1326,10.);
#383=VECTOR('',#1329,10.);
#384=VECTOR('',#1330,10.);
#385=VECTOR('',#1331,10.);
#386=VECTOR('',#1334,10.);
#387=VECTOR('',#1335,10.);
#388=VECTOR('',#1336,10.);
#389=VECTOR('',#1339,10.);
#390=VECTOR('',#1340,10.);
#391=VECTOR('',#1349,10.);
#392=VECTOR('',#1350,10.);
#393=VECTOR('',#1351,10.);
#394=VECTOR('',#1352,10.);
#395=VECTOR('',#1355,10.);
#396=VECTOR('',#1356,10.);
#397=VECTOR('',#1357,10.);
#398=VECTOR('',#1360,10.);
#399=VECTOR('',#1361,10.);
#400=VECTOR('',#1362,10.);
#401=VECTOR('',#1365,10.);
#402=VECTOR('',#1366,10.);
#403=VECTOR('',#1375,10.);
#404=VECTOR('',#1376,10.);
#405=VECTOR('',#1377,10.);
#406=VECTOR('',#1378,10.);
#407=VECTOR('',#1381,10.);
#408=VECTOR('',#1382,10.);
#409=VECTOR('',#1383,10.);
#410=VECTOR('',#1386,10.);
#411=VECTOR('',#1387,10.);
#412=VECTOR('',#1388,10.);
#413=VECTOR('',#1391,10.);
#414=VECTOR('',#1392,10.);
#415=VECTOR('',#1401,10.);
#416=VECTOR('',#1402,10.);
#417=VECTOR('',#1403,10.);
#418=VECTOR('',#1404,10.);
#419=VECTOR('',#1407,10.);
#420=VECTOR('',#1408,10.);
#421=VECTOR('',#1409,10.);
#422=VECTOR('',#1412,10.);
#423=VECTOR('',#1413,10.);
#424=VECTOR('',#1414,10.);
#425=VECTOR('',#1417,10.);
#426=VECTOR('',#1418,10.);
#427=VECTOR('',#1427,10.);
#428=VECTOR('',#1428,10.);
#429=VECTOR('',#1429,10.);
#430=VECTOR('',#1430,10.);
#431=VECTOR('',#1433,10.);
#432=VECTOR('',#1434,10.);
#433=VECTOR('',#1435,10.);
#434=VECTOR('',#1438,10.);
#435=VECTOR('',#1439,10.);
#436=VECTOR('',#1440,10.);
#437=VECTOR('',#1443,10.);
#438=VECTOR('',#1444,10.);
#439=VECTOR('',#1453,10.);
#440=VECTOR('',#1454,10.);
#441=VECTOR('',#1455,10.);
#442=VECTOR('',#1456,10.);
#443=VECTOR('',#1459,10.);
#444=VECTOR('',#1460,10.);
#445=VECTOR('',#1461,10.);
#446=VECTOR('',#1464,10.);
#447=VECTOR('',#1465,10.);
#448=VECTOR('',#1466,10.);
#449=VECTOR('',#1469,10.);
#450=VECTOR('',#1470,10.);
#451=VERTEX_POINT('',#1498);
#452=VERTEX_POINT('',#1499);
#453=VERTEX_POINT('',#1501);
#454=VERTEX_POINT('',#1503);
#455=VERTEX_POINT('',#1507);
#456=VERTEX_POINT('',#1509);
#457=VERTEX_POINT('',#1513);
#458=VERTEX_POINT('',#1515);
#459=VERTEX_POINT('',#1525);
#460=VERTEX_POINT('',#1526);
#461=VERTEX_POINT('',#1528);
#462=VERTEX_POINT('',#1530);
#463=VERTEX_POINT('',#1534);
#464=VERTEX_POINT('',#1536);
#465=VERTEX_POINT('',#1540);
#466=VERTEX_POINT('',#1542);
#467=VERTEX_POINT('',#1552);
#468=VERTEX_POINT('',#1553);
#469=VERTEX_POINT('',#1555);
#470=VERTEX_POINT('',#1557);
#471=VERTEX_POINT('',#1561);
#472=VERTEX_POINT('',#1563);
#473=VERTEX_POINT('',#1567);
#474=VERTEX_POINT('',#1569);
#475=VERTEX_POINT('',#1579);
#476=VERTEX_POINT('',#1580);
#477=VERTEX_POINT('',#1582);
#478=VERTEX_POINT('',#1584);
#479=VERTEX_POINT('',#1588);
#480=VERTEX_POINT('',#1590);
#481=VERTEX_POINT('',#1594);
#482=VERTEX_POINT('',#1596);
#483=VERTEX_POINT('',#1606);
#484=VERTEX_POINT('',#1607);
#485=VERTEX_POINT('',#1609);
#486=VERTEX_POINT('',#1611);
#487=VERTEX_POINT('',#1615);
#488=VERTEX_POINT('',#1617);
#489=VERTEX_POINT('',#1621);
#490=VERTEX_POINT('',#1623);
#491=VERTEX_POINT('',#1633);
#492=VERTEX_POINT('',#1634);
#493=VERTEX_POINT('',#1636);
#494=VERTEX_POINT('',#1638);
#495=VERTEX_POINT('',#1642);
#496=VERTEX_POINT('',#1644);
#497=VERTEX_POINT('',#1648);
#498=VERTEX_POINT('',#1650);
#499=VERTEX_POINT('',#1660);
#500=VERTEX_POINT('',#1661);
#501=VERTEX_POINT('',#1663);
#502=VERTEX_POINT('',#1665);
#503=VERTEX_POINT('',#1669);
#504=VERTEX_POINT('',#1671);
#505=VERTEX_POINT('',#1675);
#506=VERTEX_POINT('',#1677);
#507=VERTEX_POINT('',#1687);
#508=VERTEX_POINT('',#1688);
#509=VERTEX_POINT('',#1690);
#510=VERTEX_POINT('',#1692);
#511=VERTEX_POINT('',#1696);
#512=VERTEX_POINT('',#1698);
#513=VERTEX_POINT('',#1702);
#514=VERTEX_POINT('',#1704);
#515=VERTEX_POINT('',#1714);
#516=VERTEX_POINT('',#1715);
#517=VERTEX_POINT('',#1717);
#518=VERTEX_POINT('',#1719);
#519=VERTEX_POINT('',#1723);
#520=VERTEX_POINT('',#1725);
#521=VERTEX_POINT('',#1729);
#522=VERTEX_POINT('',#1731);
#523=VERTEX_POINT('',#1741);
#524=VERTEX_POINT('',#1742);
#525=VERTEX_POINT('',#1744);
#526=VERTEX_POINT('',#1746);
#527=VERTEX_POINT('',#1750);
#528=VERTEX_POINT('',#1752);
#529=VERTEX_POINT('',#1756);
#530=VERTEX_POINT('',#1758);
#531=EDGE_CURVE('',#451,#452,#211,.T.);
#532=EDGE_CURVE('',#451,#453,#212,.T.);
#533=EDGE_CURVE('',#454,#453,#213,.T.);
#534=EDGE_CURVE('',#452,#454,#214,.T.);
#535=EDGE_CURVE('',#452,#455,#215,.T.);
#536=EDGE_CURVE('',#456,#454,#216,.T.);
#537=EDGE_CURVE('',#455,#456,#217,.T.);
#538=EDGE_CURVE('',#455,#457,#218,.T.);
#539=EDGE_CURVE('',#458,#456,#219,.T.);
#540=EDGE_CURVE('',#457,#458,#220,.T.);
#541=EDGE_CURVE('',#451,#457,#221,.T.);
#542=EDGE_CURVE('',#453,#458,#222,.T.);
#543=EDGE_CURVE('',#459,#460,#223,.T.);
#544=EDGE_CURVE('',#459,#461,#224,.T.);
#545=EDGE_CURVE('',#462,#461,#225,.T.);
#546=EDGE_CURVE('',#460,#462,#226,.T.);
#547=EDGE_CURVE('',#460,#463,#227,.T.);
#548=EDGE_CURVE('',#464,#462,#228,.T.);
#549=EDGE_CURVE('',#463,#464,#229,.T.);
#550=EDGE_CURVE('',#463,#465,#230,.T.);
#551=EDGE_CURVE('',#466,#464,#231,.T.);
#552=EDGE_CURVE('',#465,#466,#232,.T.);
#553=EDGE_CURVE('',#459,#465,#233,.T.);
#554=EDGE_CURVE('',#461,#466,#234,.T.);
#555=EDGE_CURVE('',#467,#468,#235,.T.);
#556=EDGE_CURVE('',#468,#469,#236,.T.);
#557=EDGE_CURVE('',#470,#469,#237,.T.);
#558=EDGE_CURVE('',#467,#470,#238,.T.);
#559=EDGE_CURVE('',#471,#467,#239,.T.);
#560=EDGE_CURVE('',#472,#470,#240,.T.);
#561=EDGE_CURVE('',#471,#472,#241,.T.);
#562=EDGE_CURVE('',#473,#471,#242,.T.);
#563=EDGE_CURVE('',#474,#472,#243,.T.);
#564=EDGE_CURVE('',#473,#474,#244,.T.);
#565=EDGE_CURVE('',#468,#473,#245,.T.);
#566=EDGE_CURVE('',#469,#474,#246,.T.);
#567=EDGE_CURVE('',#475,#476,#247,.T.);
#568=EDGE_CURVE('',#476,#477,#248,.T.);
#569=EDGE_CURVE('',#478,#477,#249,.T.);
#570=EDGE_CURVE('',#475,#478,#250,.T.);
#571=EDGE_CURVE('',#479,#475,#251,.T.);
#572=EDGE_CURVE('',#480,#478,#252,.T.);
#573=EDGE_CURVE('',#479,#480,#253,.T.);
#574=EDGE_CURVE('',#481,#479,#254,.T.);
#575=EDGE_CURVE('',#482,#480,#255,.T.);
#576=EDGE_CURVE('',#481,#482,#256,.T.);
#577=EDGE_CURVE('',#476,#481,#257,.T.);
#578=EDGE_CURVE('',#477,#482,#258,.T.);
#579=EDGE_CURVE('',#483,#484,#259,.T.);
#580=EDGE_CURVE('',#484,#485,#260,.T.);
#581=EDGE_CURVE('',#486,#485,#261,.T.);
#582=EDGE_CURVE('',#483,#486,#262,.T.);
#583=EDGE_CURVE('',#487,#483,#263,.T.);
#584=EDGE_CURVE('',#488,#486,#264,.T.);
#585=EDGE_CURVE('',#487,#488,#265,.T.);
#586=EDGE_CURVE('',#489,#487,#266,.T.);
#587=EDGE_CURVE('',#490,#488,#267,.T.);
#588=EDGE_CURVE('',#489,#490,#268,.T.);
#589=EDGE_CURVE('',#484,#489,#269,.T.);
#590=EDGE_CURVE('',#485,#490,#270,.T.);
#591=EDGE_CURVE('',#491,#492,#271,.T.);
#592=EDGE_CURVE('',#491,#493,#272,.T.);
#593=EDGE_CURVE('',#494,#493,#273,.T.);
#594=EDGE_CURVE('',#492,#494,#274,.T.);
#595=EDGE_CURVE('',#492,#495,#275,.T.);
#596=EDGE_CURVE('',#496,#494,#276,.T.);
#597=EDGE_CURVE('',#495,#496,#277,.T.);
#598=EDGE_CURVE('',#495,#497,#278,.T.);
#599=EDGE_CURVE('',#498,#496,#279,.T.);
#600=EDGE_CURVE('',#497,#498,#280,.T.);
#601=EDGE_CURVE('',#497,#491,#281,.T.);
#602=EDGE_CURVE('',#493,#498,#282,.T.);
#603=EDGE_CURVE('',#499,#500,#283,.T.);
#604=EDGE_CURVE('',#500,#501,#284,.T.);
#605=EDGE_CURVE('',#502,#501,#285,.T.);
#606=EDGE_CURVE('',#499,#502,#286,.T.);
#607=EDGE_CURVE('',#503,#499,#287,.T.);
#608=EDGE_CURVE('',#504,#502,#288,.T.);
#609=EDGE_CURVE('',#503,#504,#289,.T.);
#610=EDGE_CURVE('',#505,#503,#290,.T.);
#611=EDGE_CURVE('',#506,#504,#291,.T.);
#612=EDGE_CURVE('',#505,#506,#292,.T.);
#613=EDGE_CURVE('',#500,#505,#293,.T.);
#614=EDGE_CURVE('',#501,#506,#294,.T.);
#615=EDGE_CURVE('',#507,#508,#295,.T.);
#616=EDGE_CURVE('',#507,#509,#296,.T.);
#617=EDGE_CURVE('',#510,#509,#297,.T.);
#618=EDGE_CURVE('',#508,#510,#298,.T.);
#619=EDGE_CURVE('',#508,#511,#299,.T.);
#620=EDGE_CURVE('',#512,#510,#300,.T.);
#621=EDGE_CURVE('',#511,#512,#301,.T.);
#622=EDGE_CURVE('',#513,#511,#302,.T.);
#623=EDGE_CURVE('',#514,#512,#303,.T.);
#624=EDGE_CURVE('',#513,#514,#304,.T.);
#625=EDGE_CURVE('',#513,#507,#305,.T.);
#626=EDGE_CURVE('',#509,#514,#306,.T.);
#627=EDGE_CURVE('',#515,#516,#307,.T.);
#628=EDGE_CURVE('',#515,#517,#308,.T.);
#629=EDGE_CURVE('',#518,#517,#309,.T.);
#630=EDGE_CURVE('',#516,#518,#310,.T.);
#631=EDGE_CURVE('',#516,#519,#311,.T.);
#632=EDGE_CURVE('',#520,#518,#312,.T.);
#633=EDGE_CURVE('',#519,#520,#313,.T.);
#634=EDGE_CURVE('',#519,#521,#314,.T.);
#635=EDGE_CURVE('',#522,#520,#315,.T.);
#636=EDGE_CURVE('',#521,#522,#316,.T.);
#637=EDGE_CURVE('',#521,#515,#317,.T.);
#638=EDGE_CURVE('',#517,#522,#318,.T.);
#639=EDGE_CURVE('',#523,#524,#319,.T.);
#640=EDGE_CURVE('',#523,#525,#320,.T.);
#641=EDGE_CURVE('',#526,#525,#321,.T.);
#642=EDGE_CURVE('',#524,#526,#322,.T.);
#643=EDGE_CURVE('',#524,#527,#323,.T.);
#644=EDGE_CURVE('',#528,#526,#324,.T.);
#645=EDGE_CURVE('',#527,#528,#325,.T.);
#646=EDGE_CURVE('',#527,#529,#326,.T.);
#647=EDGE_CURVE('',#530,#528,#327,.T.);
#648=EDGE_CURVE('',#529,#530,#328,.T.);
#649=EDGE_CURVE('',#523,#529,#329,.T.);
#650=EDGE_CURVE('',#525,#530,#330,.T.);
#651=ORIENTED_EDGE('',*,*,#531,.F.);
#652=ORIENTED_EDGE('',*,*,#532,.T.);
#653=ORIENTED_EDGE('',*,*,#533,.F.);
#654=ORIENTED_EDGE('',*,*,#534,.F.);
#655=ORIENTED_EDGE('',*,*,#535,.F.);
#656=ORIENTED_EDGE('',*,*,#534,.T.);
#657=ORIENTED_EDGE('',*,*,#536,.F.);
#658=ORIENTED_EDGE('',*,*,#537,.F.);
#659=ORIENTED_EDGE('',*,*,#538,.F.);
#660=ORIENTED_EDGE('',*,*,#537,.T.);
#661=ORIENTED_EDGE('',*,*,#539,.F.);
#662=ORIENTED_EDGE('',*,*,#540,.F.);
#663=ORIENTED_EDGE('',*,*,#541,.T.);
#664=ORIENTED_EDGE('',*,*,#540,.T.);
#665=ORIENTED_EDGE('',*,*,#542,.F.);
#666=ORIENTED_EDGE('',*,*,#532,.F.);
#667=ORIENTED_EDGE('',*,*,#542,.T.);
#668=ORIENTED_EDGE('',*,*,#539,.T.);
#669=ORIENTED_EDGE('',*,*,#536,.T.);
#670=ORIENTED_EDGE('',*,*,#533,.T.);
#671=ORIENTED_EDGE('',*,*,#541,.F.);
#672=ORIENTED_EDGE('',*,*,#531,.T.);
#673=ORIENTED_EDGE('',*,*,#535,.T.);
#674=ORIENTED_EDGE('',*,*,#538,.T.);
#675=ORIENTED_EDGE('',*,*,#543,.F.);
#676=ORIENTED_EDGE('',*,*,#544,.T.);
#677=ORIENTED_EDGE('',*,*,#545,.F.);
#678=ORIENTED_EDGE('',*,*,#546,.F.);
#679=ORIENTED_EDGE('',*,*,#547,.F.);
#680=ORIENTED_EDGE('',*,*,#546,.T.);
#681=ORIENTED_EDGE('',*,*,#548,.F.);
#682=ORIENTED_EDGE('',*,*,#549,.F.);
#683=ORIENTED_EDGE('',*,*,#550,.F.);
#684=ORIENTED_EDGE('',*,*,#549,.T.);
#685=ORIENTED_EDGE('',*,*,#551,.F.);
#686=ORIENTED_EDGE('',*,*,#552,.F.);
#687=ORIENTED_EDGE('',*,*,#553,.T.);
#688=ORIENTED_EDGE('',*,*,#552,.T.);
#689=ORIENTED_EDGE('',*,*,#554,.F.);
#690=ORIENTED_EDGE('',*,*,#544,.F.);
#691=ORIENTED_EDGE('',*,*,#554,.T.);
#692=ORIENTED_EDGE('',*,*,#551,.T.);
#693=ORIENTED_EDGE('',*,*,#548,.T.);
#694=ORIENTED_EDGE('',*,*,#545,.T.);
#695=ORIENTED_EDGE('',*,*,#553,.F.);
#696=ORIENTED_EDGE('',*,*,#543,.T.);
#697=ORIENTED_EDGE('',*,*,#547,.T.);
#698=ORIENTED_EDGE('',*,*,#550,.T.);
#699=ORIENTED_EDGE('',*,*,#555,.T.);
#700=ORIENTED_EDGE('',*,*,#556,.T.);
#701=ORIENTED_EDGE('',*,*,#557,.F.);
#702=ORIENTED_EDGE('',*,*,#558,.F.);
#703=ORIENTED_EDGE('',*,*,#559,.T.);
#704=ORIENTED_EDGE('',*,*,#558,.T.);
#705=ORIENTED_EDGE('',*,*,#560,.F.);
#706=ORIENTED_EDGE('',*,*,#561,.F.);
#707=ORIENTED_EDGE('',*,*,#562,.T.);
#708=ORIENTED_EDGE('',*,*,#561,.T.);
#709=ORIENTED_EDGE('',*,*,#563,.F.);
#710=ORIENTED_EDGE('',*,*,#564,.F.);
#711=ORIENTED_EDGE('',*,*,#565,.T.);
#712=ORIENTED_EDGE('',*,*,#564,.T.);
#713=ORIENTED_EDGE('',*,*,#566,.F.);
#714=ORIENTED_EDGE('',*,*,#556,.F.);
#715=ORIENTED_EDGE('',*,*,#566,.T.);
#716=ORIENTED_EDGE('',*,*,#563,.T.);
#717=ORIENTED_EDGE('',*,*,#560,.T.);
#718=ORIENTED_EDGE('',*,*,#557,.T.);
#719=ORIENTED_EDGE('',*,*,#565,.F.);
#720=ORIENTED_EDGE('',*,*,#555,.F.);
#721=ORIENTED_EDGE('',*,*,#559,.F.);
#722=ORIENTED_EDGE('',*,*,#562,.F.);
#723=ORIENTED_EDGE('',*,*,#567,.T.);
#724=ORIENTED_EDGE('',*,*,#568,.T.);
#725=ORIENTED_EDGE('',*,*,#569,.F.);
#726=ORIENTED_EDGE('',*,*,#570,.F.);
#727=ORIENTED_EDGE('',*,*,#571,.T.);
#728=ORIENTED_EDGE('',*,*,#570,.T.);
#729=ORIENTED_EDGE('',*,*,#572,.F.);
#730=ORIENTED_EDGE('',*,*,#573,.F.);
#731=ORIENTED_EDGE('',*,*,#574,.T.);
#732=ORIENTED_EDGE('',*,*,#573,.T.);
#733=ORIENTED_EDGE('',*,*,#575,.F.);
#734=ORIENTED_EDGE('',*,*,#576,.F.);
#735=ORIENTED_EDGE('',*,*,#577,.T.);
#736=ORIENTED_EDGE('',*,*,#576,.T.);
#737=ORIENTED_EDGE('',*,*,#578,.F.);
#738=ORIENTED_EDGE('',*,*,#568,.F.);
#739=ORIENTED_EDGE('',*,*,#578,.T.);
#740=ORIENTED_EDGE('',*,*,#575,.T.);
#741=ORIENTED_EDGE('',*,*,#572,.T.);
#742=ORIENTED_EDGE('',*,*,#569,.T.);
#743=ORIENTED_EDGE('',*,*,#577,.F.);
#744=ORIENTED_EDGE('',*,*,#567,.F.);
#745=ORIENTED_EDGE('',*,*,#571,.F.);
#746=ORIENTED_EDGE('',*,*,#574,.F.);
#747=ORIENTED_EDGE('',*,*,#579,.T.);
#748=ORIENTED_EDGE('',*,*,#580,.T.);
#749=ORIENTED_EDGE('',*,*,#581,.F.);
#750=ORIENTED_EDGE('',*,*,#582,.F.);
#751=ORIENTED_EDGE('',*,*,#583,.T.);
#752=ORIENTED_EDGE('',*,*,#582,.T.);
#753=ORIENTED_EDGE('',*,*,#584,.F.);
#754=ORIENTED_EDGE('',*,*,#585,.F.);
#755=ORIENTED_EDGE('',*,*,#586,.T.);
#756=ORIENTED_EDGE('',*,*,#585,.T.);
#757=ORIENTED_EDGE('',*,*,#587,.F.);
#758=ORIENTED_EDGE('',*,*,#588,.F.);
#759=ORIENTED_EDGE('',*,*,#589,.T.);
#760=ORIENTED_EDGE('',*,*,#588,.T.);
#761=ORIENTED_EDGE('',*,*,#590,.F.);
#762=ORIENTED_EDGE('',*,*,#580,.F.);
#763=ORIENTED_EDGE('',*,*,#590,.T.);
#764=ORIENTED_EDGE('',*,*,#587,.T.);
#765=ORIENTED_EDGE('',*,*,#584,.T.);
#766=ORIENTED_EDGE('',*,*,#581,.T.);
#767=ORIENTED_EDGE('',*,*,#589,.F.);
#768=ORIENTED_EDGE('',*,*,#579,.F.);
#769=ORIENTED_EDGE('',*,*,#583,.F.);
#770=ORIENTED_EDGE('',*,*,#586,.F.);
#771=ORIENTED_EDGE('',*,*,#591,.F.);
#772=ORIENTED_EDGE('',*,*,#592,.T.);
#773=ORIENTED_EDGE('',*,*,#593,.F.);
#774=ORIENTED_EDGE('',*,*,#594,.F.);
#775=ORIENTED_EDGE('',*,*,#595,.F.);
#776=ORIENTED_EDGE('',*,*,#594,.T.);
#777=ORIENTED_EDGE('',*,*,#596,.F.);
#778=ORIENTED_EDGE('',*,*,#597,.F.);
#779=ORIENTED_EDGE('',*,*,#598,.F.);
#780=ORIENTED_EDGE('',*,*,#597,.T.);
#781=ORIENTED_EDGE('',*,*,#599,.F.);
#782=ORIENTED_EDGE('',*,*,#600,.F.);
#783=ORIENTED_EDGE('',*,*,#601,.F.);
#784=ORIENTED_EDGE('',*,*,#600,.T.);
#785=ORIENTED_EDGE('',*,*,#602,.F.);
#786=ORIENTED_EDGE('',*,*,#592,.F.);
#787=ORIENTED_EDGE('',*,*,#602,.T.);
#788=ORIENTED_EDGE('',*,*,#599,.T.);
#789=ORIENTED_EDGE('',*,*,#596,.T.);
#790=ORIENTED_EDGE('',*,*,#593,.T.);
#791=ORIENTED_EDGE('',*,*,#601,.T.);
#792=ORIENTED_EDGE('',*,*,#591,.T.);
#793=ORIENTED_EDGE('',*,*,#595,.T.);
#794=ORIENTED_EDGE('',*,*,#598,.T.);
#795=ORIENTED_EDGE('',*,*,#603,.T.);
#796=ORIENTED_EDGE('',*,*,#604,.T.);
#797=ORIENTED_EDGE('',*,*,#605,.F.);
#798=ORIENTED_EDGE('',*,*,#606,.F.);
#799=ORIENTED_EDGE('',*,*,#607,.T.);
#800=ORIENTED_EDGE('',*,*,#606,.T.);
#801=ORIENTED_EDGE('',*,*,#608,.F.);
#802=ORIENTED_EDGE('',*,*,#609,.F.);
#803=ORIENTED_EDGE('',*,*,#610,.T.);
#804=ORIENTED_EDGE('',*,*,#609,.T.);
#805=ORIENTED_EDGE('',*,*,#611,.F.);
#806=ORIENTED_EDGE('',*,*,#612,.F.);
#807=ORIENTED_EDGE('',*,*,#613,.T.);
#808=ORIENTED_EDGE('',*,*,#612,.T.);
#809=ORIENTED_EDGE('',*,*,#614,.F.);
#810=ORIENTED_EDGE('',*,*,#604,.F.);
#811=ORIENTED_EDGE('',*,*,#614,.T.);
#812=ORIENTED_EDGE('',*,*,#611,.T.);
#813=ORIENTED_EDGE('',*,*,#608,.T.);
#814=ORIENTED_EDGE('',*,*,#605,.T.);
#815=ORIENTED_EDGE('',*,*,#613,.F.);
#816=ORIENTED_EDGE('',*,*,#603,.F.);
#817=ORIENTED_EDGE('',*,*,#607,.F.);
#818=ORIENTED_EDGE('',*,*,#610,.F.);
#819=ORIENTED_EDGE('',*,*,#615,.F.);
#820=ORIENTED_EDGE('',*,*,#616,.T.);
#821=ORIENTED_EDGE('',*,*,#617,.F.);
#822=ORIENTED_EDGE('',*,*,#618,.F.);
#823=ORIENTED_EDGE('',*,*,#619,.F.);
#824=ORIENTED_EDGE('',*,*,#618,.T.);
#825=ORIENTED_EDGE('',*,*,#620,.F.);
#826=ORIENTED_EDGE('',*,*,#621,.F.);
#827=ORIENTED_EDGE('',*,*,#622,.T.);
#828=ORIENTED_EDGE('',*,*,#621,.T.);
#829=ORIENTED_EDGE('',*,*,#623,.F.);
#830=ORIENTED_EDGE('',*,*,#624,.F.);
#831=ORIENTED_EDGE('',*,*,#625,.F.);
#832=ORIENTED_EDGE('',*,*,#624,.T.);
#833=ORIENTED_EDGE('',*,*,#626,.F.);
#834=ORIENTED_EDGE('',*,*,#616,.F.);
#835=ORIENTED_EDGE('',*,*,#626,.T.);
#836=ORIENTED_EDGE('',*,*,#623,.T.);
#837=ORIENTED_EDGE('',*,*,#620,.T.);
#838=ORIENTED_EDGE('',*,*,#617,.T.);
#839=ORIENTED_EDGE('',*,*,#625,.T.);
#840=ORIENTED_EDGE('',*,*,#615,.T.);
#841=ORIENTED_EDGE('',*,*,#619,.T.);
#842=ORIENTED_EDGE('',*,*,#622,.F.);
#843=ORIENTED_EDGE('',*,*,#627,.F.);
#844=ORIENTED_EDGE('',*,*,#628,.T.);
#845=ORIENTED_EDGE('',*,*,#629,.F.);
#846=ORIENTED_EDGE('',*,*,#630,.F.);
#847=ORIENTED_EDGE('',*,*,#631,.F.);
#848=ORIENTED_EDGE('',*,*,#630,.T.);
#849=ORIENTED_EDGE('',*,*,#632,.F.);
#850=ORIENTED_EDGE('',*,*,#633,.F.);
#851=ORIENTED_EDGE('',*,*,#634,.F.);
#852=ORIENTED_EDGE('',*,*,#633,.T.);
#853=ORIENTED_EDGE('',*,*,#635,.F.);
#854=ORIENTED_EDGE('',*,*,#636,.F.);
#855=ORIENTED_EDGE('',*,*,#637,.F.);
#856=ORIENTED_EDGE('',*,*,#636,.T.);
#857=ORIENTED_EDGE('',*,*,#638,.F.);
#858=ORIENTED_EDGE('',*,*,#628,.F.);
#859=ORIENTED_EDGE('',*,*,#638,.T.);
#860=ORIENTED_EDGE('',*,*,#635,.T.);
#861=ORIENTED_EDGE('',*,*,#632,.T.);
#862=ORIENTED_EDGE('',*,*,#629,.T.);
#863=ORIENTED_EDGE('',*,*,#637,.T.);
#864=ORIENTED_EDGE('',*,*,#627,.T.);
#865=ORIENTED_EDGE('',*,*,#631,.T.);
#866=ORIENTED_EDGE('',*,*,#634,.T.);
#867=ORIENTED_EDGE('',*,*,#639,.F.);
#868=ORIENTED_EDGE('',*,*,#640,.T.);
#869=ORIENTED_EDGE('',*,*,#641,.F.);
#870=ORIENTED_EDGE('',*,*,#642,.F.);
#871=ORIENTED_EDGE('',*,*,#643,.F.);
#872=ORIENTED_EDGE('',*,*,#642,.T.);
#873=ORIENTED_EDGE('',*,*,#644,.F.);
#874=ORIENTED_EDGE('',*,*,#645,.F.);
#875=ORIENTED_EDGE('',*,*,#646,.F.);
#876=ORIENTED_EDGE('',*,*,#645,.T.);
#877=ORIENTED_EDGE('',*,*,#647,.F.);
#878=ORIENTED_EDGE('',*,*,#648,.F.);
#879=ORIENTED_EDGE('',*,*,#649,.T.);
#880=ORIENTED_EDGE('',*,*,#648,.T.);
#881=ORIENTED_EDGE('',*,*,#650,.F.);
#882=ORIENTED_EDGE('',*,*,#640,.F.);
#883=ORIENTED_EDGE('',*,*,#650,.T.);
#884=ORIENTED_EDGE('',*,*,#647,.T.);
#885=ORIENTED_EDGE('',*,*,#644,.T.);
#886=ORIENTED_EDGE('',*,*,#641,.T.);
#887=ORIENTED_EDGE('',*,*,#649,.F.);
#888=ORIENTED_EDGE('',*,*,#639,.T.);
#889=ORIENTED_EDGE('',*,*,#643,.T.);
#890=ORIENTED_EDGE('',*,*,#646,.T.);
#891=PLANE('',#1134);
#892=PLANE('',#1135);
#893=PLANE('',#1136);
#894=PLANE('',#1137);
#895=PLANE('',#1138);
#896=PLANE('',#1139);
#897=PLANE('',#1141);
#898=PLANE('',#1142);
#899=PLANE('',#1143);
#900=PLANE('',#1144);
#901=PLANE('',#1145);
#902=PLANE('',#1146);
#903=PLANE('',#1148);
#904=PLANE('',#1149);
#905=PLANE('',#1150);
#906=PLANE('',#1151);
#907=PLANE('',#1152);
#908=PLANE('',#1153);
#909=PLANE('',#1155);
#910=PLANE('',#1156);
#911=PLANE('',#1157);
#912=PLANE('',#1158);
#913=PLANE('',#1159);
#914=PLANE('',#1160);
#915=PLANE('',#1162);
#916=PLANE('',#1163);
#917=PLANE('',#1164);
#918=PLANE('',#1165);
#919=PLANE('',#1166);
#920=PLANE('',#1167);
#921=PLANE('',#1169);
#922=PLANE('',#1170);
#923=PLANE('',#1171);
#924=PLANE('',#1172);
#925=PLANE('',#1173);
#926=PLANE('',#1174);
#927=PLANE('',#1176);
#928=PLANE('',#1177);
#929=PLANE('',#1178);
#930=PLANE('',#1179);
#931=PLANE('',#1180);
#932=PLANE('',#1181);
#933=PLANE('',#1183);
#934=PLANE('',#1184);
#935=PLANE('',#1185);
#936=PLANE('',#1186);
#937=PLANE('',#1187);
#938=PLANE('',#1188);
#939=PLANE('',#1190);
#940=PLANE('',#1191);
#941=PLANE('',#1192);
#942=PLANE('',#1193);
#943=PLANE('',#1194);
#944=PLANE('',#1195);
#945=PLANE('',#1197);
#946=PLANE('',#1198);
#947=PLANE('',#1199);
#948=PLANE('',#1200);
#949=PLANE('',#1201);
#950=PLANE('',#1202);
#951=ADVANCED_FACE('',(#91),#891,.T.);
#952=ADVANCED_FACE('',(#92),#892,.T.);
#953=ADVANCED_FACE('',(#93),#893,.T.);
#954=ADVANCED_FACE('',(#94),#894,.T.);
#955=ADVANCED_FACE('',(#95),#895,.T.);
#956=ADVANCED_FACE('',(#96),#896,.F.);
#957=ADVANCED_FACE('',(#97),#897,.T.);
#958=ADVANCED_FACE('',(#98),#898,.T.);
#959=ADVANCED_FACE('',(#99),#899,.T.);
#960=ADVANCED_FACE('',(#100),#900,.T.);
#961=ADVANCED_FACE('',(#101),#901,.T.);
#962=ADVANCED_FACE('',(#102),#902,.F.);
#963=ADVANCED_FACE('',(#103),#903,.T.);
#964=ADVANCED_FACE('',(#104),#904,.T.);
#965=ADVANCED_FACE('',(#105),#905,.T.);
#966=ADVANCED_FACE('',(#106),#906,.T.);
#967=ADVANCED_FACE('',(#107),#907,.T.);
#968=ADVANCED_FACE('',(#108),#908,.F.);
#969=ADVANCED_FACE('',(#109),#909,.T.);
#970=ADVANCED_FACE('',(#110),#910,.T.);
#971=ADVANCED_FACE('',(#111),#911,.T.);
#972=ADVANCED_FACE('',(#112),#912,.T.);
#973=ADVANCED_FACE('',(#113),#913,.T.);
#974=ADVANCED_FACE('',(#114),#914,.F.);
#975=ADVANCED_FACE('',(#115),#915,.T.);
#976=ADVANCED_FACE('',(#116),#916,.T.);
#977=ADVANCED_FACE('',(#117),#917,.T.);
#978=ADVANCED_FACE('',(#118),#918,.T.);
#979=ADVANCED_FACE('',(#119),#919,.T.);
#980=ADVANCED_FACE('',(#120),#920,.F.);
#981=ADVANCED_FACE('',(#121),#921,.T.);
#982=ADVANCED_FACE('',(#122),#922,.T.);
#983=ADVANCED_FACE('',(#123),#923,.T.);
#984=ADVANCED_FACE('',(#124),#924,.T.);
#985=ADVANCED_FACE('',(#125),#925,.T.);
#986=ADVANCED_FACE('',(#126),#926,.F.);
#987=ADVANCED_FACE('',(#127),#927,.T.);
#988=ADVANCED_FACE('',(#128),#928,.T.);
#989=ADVANCED_FACE('',(#129),#929,.T.);
#990=ADVANCED_FACE('',(#130),#930,.T.);
#991=ADVANCED_FACE('',(#131),#931,.T.);
#992=ADVANCED_FACE('',(#132),#932,.F.);
#993=ADVANCED_FACE('',(#133),#933,.T.);
#994=ADVANCED_FACE('',(#134),#934,.T.);
#995=ADVANCED_FACE('',(#135),#935,.T.);
#996=ADVANCED_FACE('',(#136),#936,.T.);
#997=ADVANCED_FACE('',(#137),#937,.T.);
#998=ADVANCED_FACE('',(#138),#938,.F.);
#999=ADVANCED_FACE('',(#139),#939,.T.);
#1000=ADVANCED_FACE('',(#140),#940,.T.);
#1001=ADVANCED_FACE('',(#141),#941,.T.);
#1002=ADVANCED_FACE('',(#142),#942,.T.);
#1003=ADVANCED_FACE('',(#143),#943,.T.);
#1004=ADVANCED_FACE('',(#144),#944,.F.);
#1005=ADVANCED_FACE('',(#145),#945,.T.);
#1006=ADVANCED_FACE('',(#146),#946,.T.);
#1007=ADVANCED_FACE('',(#147),#947,.T.);
#1008=ADVANCED_FACE('',(#148),#948,.T.);
#1009=ADVANCED_FACE('',(#149),#949,.T.);
#1010=ADVANCED_FACE('',(#150),#950,.F.);
#1011=CLOSED_SHELL('',(#951,#952,#953,#954,#955,#956));
#1012=CLOSED_SHELL('',(#957,#958,#959,#960,#961,#962));
#1013=CLOSED_SHELL('',(#963,#964,#965,#966,#967,#968));
#1014=CLOSED_SHELL('',(#969,#970,#971,#972,#973,#974));
#1015=CLOSED_SHELL('',(#975,#976,#977,#978,#979,#980));
#1016=CLOSED_SHELL('',(#981,#982,#983,#984,#985,#986));
#1017=CLOSED_SHELL('',(#987,#988,#989,#990,#991,#992));
#1018=CLOSED_SHELL('',(#993,#994,#995,#996,#997,#998));
#1019=CLOSED_SHELL('',(#999,#1000,#1001,#1002,#1003,#1004));
#1020=CLOSED_SHELL('',(#1005,#1006,#1007,#1008,#1009,#1010));
#1021=DERIVED_UNIT_ELEMENT(#1041,1.);
#1022=DERIVED_UNIT_ELEMENT(#1801,-3.);
#1023=DERIVED_UNIT_ELEMENT(#1041,1.);
#1024=DERIVED_UNIT_ELEMENT(#1801,-3.);
#1025=DERIVED_UNIT_ELEMENT(#1041,1.);
#1026=DERIVED_UNIT_ELEMENT(#1801,-3.);
#1027=DERIVED_UNIT_ELEMENT(#1041,1.);
#1028=DERIVED_UNIT_ELEMENT(#1801,-3.);
#1029=DERIVED_UNIT_ELEMENT(#1041,1.);
#1030=DERIVED_UNIT_ELEMENT(#1801,-3.);
#1031=DERIVED_UNIT_ELEMENT(#1041,1.);
#1032=DERIVED_UNIT_ELEMENT(#1801,-3.);
#1033=DERIVED_UNIT_ELEMENT(#1041,1.);
#1034=DERIVED_UNIT_ELEMENT(#1801,-3.);
#1035=DERIVED_UNIT_ELEMENT(#1041,1.);
#1036=DERIVED_UNIT_ELEMENT(#1801,-3.);
#1037=DERIVED_UNIT_ELEMENT(#1041,1.);
#1038=DERIVED_UNIT_ELEMENT(#1801,-3.);
#1039=DERIVED_UNIT_ELEMENT(#1041,1.);
#1040=DERIVED_UNIT_ELEMENT(#1801,-3.);
#1041=(
MASS_UNIT()
NAMED_UNIT(*)
SI_UNIT(.KILO.,.GRAM.)
);
#1042=DERIVED_UNIT((#1021,#1022));
#1043=DERIVED_UNIT((#1023,#1024));
#1044=DERIVED_UNIT((#1025,#1026));
#1045=DERIVED_UNIT((#1027,#1028));
#1046=DERIVED_UNIT((#1029,#1030));
#1047=DERIVED_UNIT((#1031,#1032));
#1048=DERIVED_UNIT((#1033,#1034));
#1049=DERIVED_UNIT((#1035,#1036));
#1050=DERIVED_UNIT((#1037,#1038));
#1051=DERIVED_UNIT((#1039,#1040));
#1052=MEASURE_REPRESENTATION_ITEM('density measure',
POSITIVE_RATIO_MEASURE(7850.),#1042);
#1053=MEASURE_REPRESENTATION_ITEM('density measure',
POSITIVE_RATIO_MEASURE(7850.),#1043);
#1054=MEASURE_REPRESENTATION_ITEM('density measure',
POSITIVE_RATIO_MEASURE(7850.),#1044);
#1055=MEASURE_REPRESENTATION_ITEM('density measure',
POSITIVE_RATIO_MEASURE(7850.),#1045);
#1056=MEASURE_REPRESENTATION_ITEM('density measure',
POSITIVE_RATIO_MEASURE(7850.),#1046);
#1057=MEASURE_REPRESENTATION_ITEM('density measure',
POSITIVE_RATIO_MEASURE(7850.),#1047);
#1058=MEASURE_REPRESENTATION_ITEM('density measure',
POSITIVE_RATIO_MEASURE(7850.),#1048);
#1059=MEASURE_REPRESENTATION_ITEM('density measure',
POSITIVE_RATIO_MEASURE(7850.),#1049);
#1060=MEASURE_REPRESENTATION_ITEM('density measure',
POSITIVE_RATIO_MEASURE(7850.),#1050);
#1061=MEASURE_REPRESENTATION_ITEM('density measure',
POSITIVE_RATIO_MEASURE(7850.),#1051);
#1062=PROPERTY_DEFINITION_REPRESENTATION(#1112,#1082);
#1063=PROPERTY_DEFINITION_REPRESENTATION(#1113,#1083);
#1064=PROPERTY_DEFINITION_REPRESENTATION(#1114,#1084);
#1065=PROPERTY_DEFINITION_REPRESENTATION(#1115,#1085);
#1066=PROPERTY_DEFINITION_REPRESENTATION(#1116,#1086);
#1067=PROPERTY_DEFINITION_REPRESENTATION(#1117,#1087);
#1068=PROPERTY_DEFINITION_REPRESENTATION(#1118,#1088);
#1069=PROPERTY_DEFINITION_REPRESENTATION(#1119,#1089);
#1070=PROPERTY_DEFINITION_REPRESENTATION(#1120,#1090);
#1071=PROPERTY_DEFINITION_REPRESENTATION(#1121,#1091);
#1072=PROPERTY_DEFINITION_REPRESENTATION(#1122,#1092);
#1073=PROPERTY_DEFINITION_REPRESENTATION(#1123,#1093);
#1074=PROPERTY_DEFINITION_REPRESENTATION(#1124,#1094);
#1075=PROPERTY_DEFINITION_REPRESENTATION(#1125,#1095);
#1076=PROPERTY_DEFINITION_REPRESENTATION(#1126,#1096);
#1077=PROPERTY_DEFINITION_REPRESENTATION(#1127,#1097);
#1078=PROPERTY_DEFINITION_REPRESENTATION(#1128,#1098);
#1079=PROPERTY_DEFINITION_REPRESENTATION(#1129,#1099);
#1080=PROPERTY_DEFINITION_REPRESENTATION(#1130,#1100);
#1081=PROPERTY_DEFINITION_REPRESENTATION(#1131,#1101);
#1082=REPRESENTATION('material name',(#1102),#1789);
#1083=REPRESENTATION('density',(#1052),#1789);
#1084=REPRESENTATION('material name',(#1103),#1790);
#1085=REPRESENTATION('density',(#1053),#1790);
#1086=REPRESENTATION('material name',(#1104),#1791);
#1087=REPRESENTATION('density',(#1054),#1791);
#1088=REPRESENTATION('material name',(#1105),#1792);
#1089=REPRESENTATION('density',(#1055),#1792);
#1090=REPRESENTATION('material name',(#1106),#1793);
#1091=REPRESENTATION('density',(#1056),#1793);
#1092=REPRESENTATION('material name',(#1107),#1794);
#1093=REPRESENTATION('density',(#1057),#1794);
#1094=REPRESENTATION('material name',(#1108),#1795);
#1095=REPRESENTATION('density',(#1058),#1795);
#1096=REPRESENTATION('material name',(#1109),#1796);
#1097=REPRESENTATION('density',(#1059),#1796);
#1098=REPRESENTATION('material name',(#1110),#1797);
#1099=REPRESENTATION('density',(#1060),#1797);
#1100=REPRESENTATION('material name',(#1111),#1798);
#1101=REPRESENTATION('density',(#1061),#1798);
#1102=DESCRIPTIVE_REPRESENTATION_ITEM('Acier','Acier');
#1103=DESCRIPTIVE_REPRESENTATION_ITEM('Acier','Acier');
#1104=DESCRIPTIVE_REPRESENTATION_ITEM('Acier','Acier');
#1105=DESCRIPTIVE_REPRESENTATION_ITEM('Acier','Acier');
#1106=DESCRIPTIVE_REPRESENTATION_ITEM('Acier','Acier');
#1107=DESCRIPTIVE_REPRESENTATION_ITEM('Acier','Acier');
#1108=DESCRIPTIVE_REPRESENTATION_ITEM('Acier','Acier');
#1109=DESCRIPTIVE_REPRESENTATION_ITEM('Acier','Acier');
#1110=DESCRIPTIVE_REPRESENTATION_ITEM('Acier','Acier');
#1111=DESCRIPTIVE_REPRESENTATION_ITEM('Acier','Acier');
#1112=PROPERTY_DEFINITION('material property','material name',#1849);
#1113=PROPERTY_DEFINITION('material property','density of part',#1849);
#1114=PROPERTY_DEFINITION('material property','material name',#1850);
#1115=PROPERTY_DEFINITION('material property','density of part',#1850);
#1116=PROPERTY_DEFINITION('material property','material name',#1851);
#1117=PROPERTY_DEFINITION('material property','density of part',#1851);
#1118=PROPERTY_DEFINITION('material property','material name',#1852);
#1119=PROPERTY_DEFINITION('material property','density of part',#1852);
#1120=PROPERTY_DEFINITION('material property','material name',#1853);
#1121=PROPERTY_DEFINITION('material property','density of part',#1853);
#1122=PROPERTY_DEFINITION('material property','material name',#1854);
#1123=PROPERTY_DEFINITION('material property','density of part',#1854);
#1124=PROPERTY_DEFINITION('material property','material name',#1855);
#1125=PROPERTY_DEFINITION('material property','density of part',#1855);
#1126=PROPERTY_DEFINITION('material property','material name',#1856);
#1127=PROPERTY_DEFINITION('material property','density of part',#1856);
#1128=PROPERTY_DEFINITION('material property','material name',#1857);
#1129=PROPERTY_DEFINITION('material property','density of part',#1857);
#1130=PROPERTY_DEFINITION('material property','material name',#1858);
#1131=PROPERTY_DEFINITION('material property','density of part',#1858);
#1132=AXIS2_PLACEMENT_3D('',#1495,#1213,#1214);
#1133=AXIS2_PLACEMENT_3D('',#1496,#1215,#1216);
#1134=AXIS2_PLACEMENT_3D('',#1497,#1217,#1218);
#1135=AXIS2_PLACEMENT_3D('',#1506,#1223,#1224);
#1136=AXIS2_PLACEMENT_3D('',#1512,#1228,#1229);
#1137=AXIS2_PLACEMENT_3D('',#1518,#1233,#1234);
#1138=AXIS2_PLACEMENT_3D('',#1521,#1237,#1238);
#1139=AXIS2_PLACEMENT_3D('',#1522,#1239,#1240);
#1140=AXIS2_PLACEMENT_3D('',#1523,#1241,#1242);
#1141=AXIS2_PLACEMENT_3D('',#1524,#1243,#1244);
#1142=AXIS2_PLACEMENT_3D('',#1533,#1249,#1250);
#1143=AXIS2_PLACEMENT_3D('',#1539,#1254,#1255);
#1144=AXIS2_PLACEMENT_3D('',#1545,#1259,#1260);
#1145=AXIS2_PLACEMENT_3D('',#1548,#1263,#1264);
#1146=AXIS2_PLACEMENT_3D('',#1549,#1265,#1266);
#1147=AXIS2_PLACEMENT_3D('',#1550,#1267,#1268);
#1148=AXIS2_PLACEMENT_3D('',#1551,#1269,#1270);
#1149=AXIS2_PLACEMENT_3D('',#1560,#1275,#1276);
#1150=AXIS2_PLACEMENT_3D('',#1566,#1280,#1281);
#1151=AXIS2_PLACEMENT_3D('',#1572,#1285,#1286);
#1152=AXIS2_PLACEMENT_3D('',#1575,#1289,#1290);
#1153=AXIS2_PLACEMENT_3D('',#1576,#1291,#1292);
#1154=AXIS2_PLACEMENT_3D('',#1577,#1293,#1294);
#1155=AXIS2_PLACEMENT_3D('',#1578,#1295,#1296);
#1156=AXIS2_PLACEMENT_3D('',#1587,#1301,#1302);
#1157=AXIS2_PLACEMENT_3D('',#1593,#1306,#1307);
#1158=AXIS2_PLACEMENT_3D('',#1599,#1311,#1312);
#1159=AXIS2_PLACEMENT_3D('',#1602,#1315,#1316);
#1160=AXIS2_PLACEMENT_3D('',#1603,#1317,#1318);
#1161=AXIS2_PLACEMENT_3D('',#1604,#1319,#1320);
#1162=AXIS2_PLACEMENT_3D('',#1605,#1321,#1322);
#1163=AXIS2_PLACEMENT_3D('',#1614,#1327,#1328);
#1164=AXIS2_PLACEMENT_3D('',#1620,#1332,#1333);
#1165=AXIS2_PLACEMENT_3D('',#1626,#1337,#1338);
#1166=AXIS2_PLACEMENT_3D('',#1629,#1341,#1342);
#1167=AXIS2_PLACEMENT_3D('',#1630,#1343,#1344);
#1168=AXIS2_PLACEMENT_3D('',#1631,#1345,#1346);
#1169=AXIS2_PLACEMENT_3D('',#1632,#1347,#1348);
#1170=AXIS2_PLACEMENT_3D('',#1641,#1353,#1354);
#1171=AXIS2_PLACEMENT_3D('',#1647,#1358,#1359);
#1172=AXIS2_PLACEMENT_3D('',#1653,#1363,#1364);
#1173=AXIS2_PLACEMENT_3D('',#1656,#1367,#1368);
#1174=AXIS2_PLACEMENT_3D('',#1657,#1369,#1370);
#1175=AXIS2_PLACEMENT_3D('',#1658,#1371,#1372);
#1176=AXIS2_PLACEMENT_3D('',#1659,#1373,#1374);
#1177=AXIS2_PLACEMENT_3D('',#1668,#1379,#1380);
#1178=AXIS2_PLACEMENT_3D('',#1674,#1384,#1385);
#1179=AXIS2_PLACEMENT_3D('',#1680,#1389,#1390);
#1180=AXIS2_PLACEMENT_3D('',#1683,#1393,#1394);
#1181=AXIS2_PLACEMENT_3D('',#1684,#1395,#1396);
#1182=AXIS2_PLACEMENT_3D('',#1685,#1397,#1398);
#1183=AXIS2_PLACEMENT_3D('',#1686,#1399,#1400);
#1184=AXIS2_PLACEMENT_3D('',#1695,#1405,#1406);
#1185=AXIS2_PLACEMENT_3D('',#1701,#1410,#1411);
#1186=AXIS2_PLACEMENT_3D('',#1707,#1415,#1416);
#1187=AXIS2_PLACEMENT_3D('',#1710,#1419,#1420);
#1188=AXIS2_PLACEMENT_3D('',#1711,#1421,#1422);
#1189=AXIS2_PLACEMENT_3D('',#1712,#1423,#1424);
#1190=AXIS2_PLACEMENT_3D('',#1713,#1425,#1426);
#1191=AXIS2_PLACEMENT_3D('',#1722,#1431,#1432);
#1192=AXIS2_PLACEMENT_3D('',#1728,#1436,#1437);
#1193=AXIS2_PLACEMENT_3D('',#1734,#1441,#1442);
#1194=AXIS2_PLACEMENT_3D('',#1737,#1445,#1446);
#1195=AXIS2_PLACEMENT_3D('',#1738,#1447,#1448);
#1196=AXIS2_PLACEMENT_3D('',#1739,#1449,#1450);
#1197=AXIS2_PLACEMENT_3D('',#1740,#1451,#1452);
#1198=AXIS2_PLACEMENT_3D('',#1749,#1457,#1458);
#1199=AXIS2_PLACEMENT_3D('',#1755,#1462,#1463);
#1200=AXIS2_PLACEMENT_3D('',#1761,#1467,#1468);
#1201=AXIS2_PLACEMENT_3D('',#1764,#1471,#1472);
#1202=AXIS2_PLACEMENT_3D('',#1765,#1473,#1474);
#1203=AXIS2_PLACEMENT_3D('',#1766,#1475,#1476);
#1204=AXIS2_PLACEMENT_3D('',#1767,#1477,#1478);
#1205=AXIS2_PLACEMENT_3D('',#1768,#1479,#1480);
#1206=AXIS2_PLACEMENT_3D('',#1769,#1481,#1482);
#1207=AXIS2_PLACEMENT_3D('',#1770,#1483,#1484);
#1208=AXIS2_PLACEMENT_3D('',#1771,#1485,#1486);
#1209=AXIS2_PLACEMENT_3D('',#1772,#1487,#1488);
#1210=AXIS2_PLACEMENT_3D('',#1773,#1489,#1490);
#1211=AXIS2_PLACEMENT_3D('',#1774,#1491,#1492);
#1212=AXIS2_PLACEMENT_3D('',#1775,#1493,#1494);
#1213=DIRECTION('axis',(0.,0.,1.));
#1214=DIRECTION('refdir',(1.,0.,0.));
#1215=DIRECTION('axis',(0.,0.,1.));
#1216=DIRECTION('refdir',(1.,0.,0.));
#1217=DIRECTION('center_axis',(1.,0.,0.));
#1218=DIRECTION('ref_axis',(0.,1.,0.));
#1219=DIRECTION('',(0.,-1.,0.));
#1220=DIRECTION('',(0.,0.,1.));
#1221=DIRECTION('',(0.,1.,0.));
#1222=DIRECTION('',(0.,0.,1.));
#1223=DIRECTION('center_axis',(0.,-1.,0.));
#1224=DIRECTION('ref_axis',(1.,0.,0.));
#1225=DIRECTION('',(-1.,0.,0.));
#1226=DIRECTION('',(1.,0.,0.));
#1227=DIRECTION('',(0.,0.,1.));
#1228=DIRECTION('center_axis',(-1.,0.,0.));
#1229=DIRECTION('ref_axis',(0.,-1.,0.));
#1230=DIRECTION('',(0.,1.,0.));
#1231=DIRECTION('',(0.,-1.,0.));
#1232=DIRECTION('',(0.,0.,1.));
#1233=DIRECTION('center_axis',(0.,1.,0.));
#1234=DIRECTION('ref_axis',(-1.,0.,0.));
#1235=DIRECTION('',(-1.,0.,0.));
#1236=DIRECTION('',(-1.,0.,0.));
#1237=DIRECTION('center_axis',(0.,0.,1.));
#1238=DIRECTION('ref_axis',(1.,0.,0.));
#1239=DIRECTION('center_axis',(0.,0.,1.));
#1240=DIRECTION('ref_axis',(1.,0.,0.));
#1241=DIRECTION('axis',(0.,0.,1.));
#1242=DIRECTION('refdir',(1.,0.,0.));
#1243=DIRECTION('center_axis',(1.,0.,0.));
#1244=DIRECTION('ref_axis',(0.,1.,0.));
#1245=DIRECTION('',(0.,-1.,0.));
#1246=DIRECTION('',(0.,0.,1.));
#1247=DIRECTION('',(0.,1.,0.));
#1248=DIRECTION('',(0.,0.,1.));
#1249=DIRECTION('center_axis',(0.,-1.,0.));
#1250=DIRECTION('ref_axis',(1.,0.,0.));
#1251=DIRECTION('',(-1.,0.,0.));
#1252=DIRECTION('',(1.,0.,0.));
#1253=DIRECTION('',(0.,0.,1.));
#1254=DIRECTION('center_axis',(-1.,0.,0.));
#1255=DIRECTION('ref_axis',(0.,-1.,0.));
#1256=DIRECTION('',(0.,1.,0.));
#1257=DIRECTION('',(0.,-1.,0.));
#1258=DIRECTION('',(0.,0.,1.));
#1259=DIRECTION('center_axis',(0.,1.,0.));
#1260=DIRECTION('ref_axis',(-1.,0.,0.));
#1261=DIRECTION('',(-1.,0.,0.));
#1262=DIRECTION('',(-1.,0.,0.));
#1263=DIRECTION('center_axis',(0.,0.,1.));
#1264=DIRECTION('ref_axis',(1.,0.,0.));
#1265=DIRECTION('center_axis',(0.,0.,1.));
#1266=DIRECTION('ref_axis',(1.,0.,0.));
#1267=DIRECTION('axis',(0.,0.,1.));
#1268=DIRECTION('refdir',(1.,0.,0.));
#1269=DIRECTION('center_axis',(1.,0.,0.));
#1270=DIRECTION('ref_axis',(0.,1.,0.));
#1271=DIRECTION('',(0.,1.,0.));
#1272=DIRECTION('',(0.,0.,1.));
#1273=DIRECTION('',(0.,1.,0.));
#1274=DIRECTION('',(0.,0.,1.));
#1275=DIRECTION('center_axis',(0.,-1.,0.));
#1276=DIRECTION('ref_axis',(1.,0.,0.));
#1277=DIRECTION('',(1.,0.,0.));
#1278=DIRECTION('',(1.,0.,0.));
#1279=DIRECTION('',(0.,0.,1.));
#1280=DIRECTION('center_axis',(-1.,0.,0.));
#1281=DIRECTION('ref_axis',(0.,-1.,0.));
#1282=DIRECTION('',(0.,-1.,0.));
#1283=DIRECTION('',(0.,-1.,0.));
#1284=DIRECTION('',(0.,0.,1.));
#1285=DIRECTION('center_axis',(0.,1.,0.));
#1286=DIRECTION('ref_axis',(-1.,0.,0.));
#1287=DIRECTION('',(-1.,0.,0.));
#1288=DIRECTION('',(-1.,0.,0.));
#1289=DIRECTION('center_axis',(0.,0.,1.));
#1290=DIRECTION('ref_axis',(1.,0.,0.));
#1291=DIRECTION('center_axis',(0.,0.,1.));
#1292=DIRECTION('ref_axis',(1.,0.,0.));
#1293=DIRECTION('axis',(0.,0.,1.));
#1294=DIRECTION('refdir',(1.,0.,0.));
#1295=DIRECTION('center_axis',(1.,0.,0.));
#1296=DIRECTION('ref_axis',(0.,1.,0.));
#1297=DIRECTION('',(0.,1.,0.));
#1298=DIRECTION('',(0.,0.,1.));
#1299=DIRECTION('',(0.,1.,0.));
#1300=DIRECTION('',(0.,0.,1.));
#1301=DIRECTION('center_axis',(0.,-1.,0.));
#1302=DIRECTION('ref_axis',(1.,0.,0.));
#1303=DIRECTION('',(1.,0.,0.));
#1304=DIRECTION('',(1.,0.,0.));
#1305=DIRECTION('',(0.,0.,1.));
#1306=DIRECTION('center_axis',(-1.,0.,0.));
#1307=DIRECTION('ref_axis',(0.,-1.,0.));
#1308=DIRECTION('',(0.,-1.,0.));
#1309=DIRECTION('',(0.,-1.,0.));
#1310=DIRECTION('',(0.,0.,1.));
#1311=DIRECTION('center_axis',(0.,1.,0.));
#1312=DIRECTION('ref_axis',(-1.,0.,0.));
#1313=DIRECTION('',(-1.,0.,0.));
#1314=DIRECTION('',(-1.,0.,0.));
#1315=DIRECTION('center_axis',(0.,0.,1.));
#1316=DIRECTION('ref_axis',(1.,0.,0.));
#1317=DIRECTION('center_axis',(0.,0.,1.));
#1318=DIRECTION('ref_axis',(1.,0.,0.));
#1319=DIRECTION('axis',(0.,0.,1.));
#1320=DIRECTION('refdir',(1.,0.,0.));
#1321=DIRECTION('center_axis',(1.,0.,0.));
#1322=DIRECTION('ref_axis',(0.,1.,0.));
#1323=DIRECTION('',(0.,1.,0.));
#1324=DIRECTION('',(0.,0.,1.));
#1325=DIRECTION('',(0.,1.,0.));
#1326=DIRECTION('',(0.,0.,1.));
#1327=DIRECTION('center_axis',(0.,-1.,0.));
#1328=DIRECTION('ref_axis',(1.,0.,0.));
#1329=DIRECTION('',(1.,0.,0.));
#1330=DIRECTION('',(1.,0.,0.));
#1331=DIRECTION('',(0.,0.,1.));
#1332=DIRECTION('center_axis',(-1.,0.,0.));
#1333=DIRECTION('ref_axis',(0.,-1.,0.));
#1334=DIRECTION('',(0.,-1.,0.));
#1335=DIRECTION('',(0.,-1.,0.));
#1336=DIRECTION('',(0.,0.,1.));
#1337=DIRECTION('center_axis',(0.,1.,0.));
#1338=DIRECTION('ref_axis',(-1.,0.,0.));
#1339=DIRECTION('',(-1.,0.,0.));
#1340=DIRECTION('',(-1.,0.,0.));
#1341=DIRECTION('center_axis',(0.,0.,1.));
#1342=DIRECTION('ref_axis',(1.,0.,0.));
#1343=DIRECTION('center_axis',(0.,0.,1.));
#1344=DIRECTION('ref_axis',(1.,0.,0.));
#1345=DIRECTION('axis',(0.,0.,1.));
#1346=DIRECTION('refdir',(1.,0.,0.));
#1347=DIRECTION('center_axis',(0.,1.,0.));
#1348=DIRECTION('ref_axis',(-1.,0.,0.));
#1349=DIRECTION('',(1.,0.,0.));
#1350=DIRECTION('',(0.,0.,1.));
#1351=DIRECTION('',(-1.,0.,0.));
#1352=DIRECTION('',(0.,0.,1.));
#1353=DIRECTION('center_axis',(1.,0.,0.));
#1354=DIRECTION('ref_axis',(0.,1.,0.));
#1355=DIRECTION('',(0.,-1.,0.));
#1356=DIRECTION('',(0.,1.,0.));
#1357=DIRECTION('',(0.,0.,1.));
#1358=DIRECTION('center_axis',(0.,-1.,0.));
#1359=DIRECTION('ref_axis',(1.,0.,0.));
#1360=DIRECTION('',(-1.,0.,0.));
#1361=DIRECTION('',(1.,0.,0.));
#1362=DIRECTION('',(0.,0.,1.));
#1363=DIRECTION('center_axis',(-1.,0.,0.));
#1364=DIRECTION('ref_axis',(0.,-1.,0.));
#1365=DIRECTION('',(0.,1.,0.));
#1366=DIRECTION('',(0.,-1.,0.));
#1367=DIRECTION('center_axis',(0.,0.,1.));
#1368=DIRECTION('ref_axis',(1.,0.,0.));
#1369=DIRECTION('center_axis',(0.,0.,1.));
#1370=DIRECTION('ref_axis',(1.,0.,0.));
#1371=DIRECTION('axis',(0.,0.,1.));
#1372=DIRECTION('refdir',(1.,0.,0.));
#1373=DIRECTION('center_axis',(1.,0.,0.));
#1374=DIRECTION('ref_axis',(0.,1.,0.));
#1375=DIRECTION('',(0.,1.,0.));
#1376=DIRECTION('',(0.,0.,1.));
#1377=DIRECTION('',(0.,1.,0.));
#1378=DIRECTION('',(0.,0.,1.));
#1379=DIRECTION('center_axis',(0.,-1.,0.));
#1380=DIRECTION('ref_axis',(1.,0.,0.));
#1381=DIRECTION('',(1.,0.,0.));
#1382=DIRECTION('',(1.,0.,0.));
#1383=DIRECTION('',(0.,0.,1.));
#1384=DIRECTION('center_axis',(-1.,0.,0.));
#1385=DIRECTION('ref_axis',(0.,-1.,0.));
#1386=DIRECTION('',(0.,-1.,0.));
#1387=DIRECTION('',(0.,-1.,0.));
#1388=DIRECTION('',(0.,0.,1.));
#1389=DIRECTION('center_axis',(0.,1.,0.));
#1390=DIRECTION('ref_axis',(-1.,0.,0.));
#1391=DIRECTION('',(-1.,0.,0.));
#1392=DIRECTION('',(-1.,0.,0.));
#1393=DIRECTION('center_axis',(0.,0.,1.));
#1394=DIRECTION('ref_axis',(1.,0.,0.));
#1395=DIRECTION('center_axis',(0.,0.,1.));
#1396=DIRECTION('ref_axis',(1.,0.,0.));
#1397=DIRECTION('axis',(0.,0.,1.));
#1398=DIRECTION('refdir',(1.,0.,0.));
#1399=DIRECTION('center_axis',(-1.,0.,0.));
#1400=DIRECTION('ref_axis',(0.,-1.,0.));
#1401=DIRECTION('',(0.,1.,0.));
#1402=DIRECTION('',(0.,0.,1.));
#1403=DIRECTION('',(0.,-1.,0.));
#1404=DIRECTION('',(0.,0.,1.));
#1405=DIRECTION('center_axis',(0.,1.,0.));
#1406=DIRECTION('ref_axis',(-1.,0.,0.));
#1407=DIRECTION('',(1.,0.,0.));
#1408=DIRECTION('',(-1.,0.,0.));
#1409=DIRECTION('',(0.,0.,1.));
#1410=DIRECTION('center_axis',(1.,0.,0.));
#1411=DIRECTION('ref_axis',(0.,1.,0.));
#1412=DIRECTION('',(0.,1.,0.));
#1413=DIRECTION('',(0.,1.,0.));
#1414=DIRECTION('',(0.,0.,1.));
#1415=DIRECTION('center_axis',(0.,-1.,0.));
#1416=DIRECTION('ref_axis',(1.,0.,0.));
#1417=DIRECTION('',(-1.,0.,0.));
#1418=DIRECTION('',(1.,0.,0.));
#1419=DIRECTION('center_axis',(0.,0.,1.));
#1420=DIRECTION('ref_axis',(1.,0.,0.));
#1421=DIRECTION('center_axis',(0.,0.,1.));
#1422=DIRECTION('ref_axis',(1.,0.,0.));
#1423=DIRECTION('axis',(0.,0.,1.));
#1424=DIRECTION('refdir',(1.,0.,0.));
#1425=DIRECTION('center_axis',(1.,0.,0.));
#1426=DIRECTION('ref_axis',(0.,1.,0.));
#1427=DIRECTION('',(0.,-1.,0.));
#1428=DIRECTION('',(0.,0.,1.));
#1429=DIRECTION('',(0.,1.,0.));
#1430=DIRECTION('',(0.,0.,1.));
#1431=DIRECTION('center_axis',(0.,-1.,0.));
#1432=DIRECTION('ref_axis',(1.,0.,0.));
#1433=DIRECTION('',(-1.,0.,0.));
#1434=DIRECTION('',(1.,0.,0.));
#1435=DIRECTION('',(0.,0.,1.));
#1436=DIRECTION('center_axis',(-1.,0.,0.));
#1437=DIRECTION('ref_axis',(0.,-1.,0.));
#1438=DIRECTION('',(0.,1.,0.));
#1439=DIRECTION('',(0.,-1.,0.));
#1440=DIRECTION('',(0.,0.,1.));
#1441=DIRECTION('center_axis',(0.,1.,0.));
#1442=DIRECTION('ref_axis',(-1.,0.,0.));
#1443=DIRECTION('',(1.,0.,0.));
#1444=DIRECTION('',(-1.,0.,0.));
#1445=DIRECTION('center_axis',(0.,0.,1.));
#1446=DIRECTION('ref_axis',(1.,0.,0.));
#1447=DIRECTION('center_axis',(0.,0.,1.));
#1448=DIRECTION('ref_axis',(1.,0.,0.));
#1449=DIRECTION('axis',(0.,0.,1.));
#1450=DIRECTION('refdir',(1.,0.,0.));
#1451=DIRECTION('center_axis',(1.,0.,0.));
#1452=DIRECTION('ref_axis',(0.,1.,0.));
#1453=DIRECTION('',(0.,-1.,0.));
#1454=DIRECTION('',(0.,0.,1.));
#1455=DIRECTION('',(0.,1.,0.));
#1456=DIRECTION('',(0.,0.,1.));
#1457=DIRECTION('center_axis',(0.,-1.,0.));
#1458=DIRECTION('ref_axis',(1.,0.,0.));
#1459=DIRECTION('',(-1.,0.,0.));
#1460=DIRECTION('',(1.,0.,0.));
#1461=DIRECTION('',(0.,0.,1.));
#1462=DIRECTION('center_axis',(-1.,0.,0.));
#1463=DIRECTION('ref_axis',(0.,-1.,0.));
#1464=DIRECTION('',(0.,1.,0.));
#1465=DIRECTION('',(0.,-1.,0.));
#1466=DIRECTION('',(0.,0.,1.));
#1467=DIRECTION('center_axis',(0.,1.,0.));
#1468=DIRECTION('ref_axis',(-1.,0.,0.));
#1469=DIRECTION('',(-1.,0.,0.));
#1470=DIRECTION('',(-1.,0.,0.));
#1471=DIRECTION('center_axis',(0.,0.,1.));
#1472=DIRECTION('ref_axis',(1.,0.,0.));
#1473=DIRECTION('center_axis',(0.,0.,1.));
#1474=DIRECTION('ref_axis',(1.,0.,0.));
#1475=DIRECTION('',(0.,0.,1.));
#1476=DIRECTION('',(1.,0.,0.));
#1477=DIRECTION('',(0.,0.,1.));
#1478=DIRECTION('',(1.,0.,0.));
#1479=DIRECTION('',(0.,0.,1.));
#1480=DIRECTION('',(1.,0.,0.));
#1481=DIRECTION('',(0.,0.,1.));
#1482=DIRECTION('',(1.,0.,0.));
#1483=DIRECTION('',(0.,0.,1.));
#1484=DIRECTION('',(1.,0.,0.));
#1485=DIRECTION('',(0.,0.,1.));
#1486=DIRECTION('',(1.,0.,0.));
#1487=DIRECTION('',(0.,0.,1.));
#1488=DIRECTION('',(1.,0.,0.));
#1489=DIRECTION('',(0.,0.,1.));
#1490=DIRECTION('',(1.,0.,0.));
#1491=DIRECTION('',(0.,0.,1.));
#1492=DIRECTION('',(1.,0.,0.));
#1493=DIRECTION('',(0.,0.,1.));
#1494=DIRECTION('',(1.,0.,0.));
#1495=CARTESIAN_POINT('',(0.,0.,0.));
#1496=CARTESIAN_POINT('',(0.,0.,0.));
#1497=CARTESIAN_POINT('Origin',(1000.,0.,0.));
#1498=CARTESIAN_POINT('',(1000.,70.,0.));
#1499=CARTESIAN_POINT('',(1000.,0.,0.));
#1500=CARTESIAN_POINT('',(1000.,70.,0.));
#1501=CARTESIAN_POINT('',(1000.,70.,38.));
#1502=CARTESIAN_POINT('',(1000.,70.,0.));
#1503=CARTESIAN_POINT('',(1000.,0.,38.));
#1504=CARTESIAN_POINT('',(1000.,70.,38.));
#1505=CARTESIAN_POINT('',(1000.,0.,0.));
#1506=CARTESIAN_POINT('Origin',(0.,0.,0.));
#1507=CARTESIAN_POINT('',(0.,0.,0.));
#1508=CARTESIAN_POINT('',(1000.,0.,0.));
#1509=CARTESIAN_POINT('',(0.,0.,38.));
#1510=CARTESIAN_POINT('',(1000.,0.,38.));
#1511=CARTESIAN_POINT('',(0.,0.,0.));
#1512=CARTESIAN_POINT('Origin',(0.,70.,0.));
#1513=CARTESIAN_POINT('',(0.,70.,0.));
#1514=CARTESIAN_POINT('',(0.,0.,0.));
#1515=CARTESIAN_POINT('',(0.,70.,38.));
#1516=CARTESIAN_POINT('',(0.,0.,38.));
#1517=CARTESIAN_POINT('',(0.,70.,0.));
#1518=CARTESIAN_POINT('Origin',(1000.,70.,0.));
#1519=CARTESIAN_POINT('',(300.,70.,0.));
#1520=CARTESIAN_POINT('',(300.,70.,38.));
#1521=CARTESIAN_POINT('Origin',(500.,35.,38.));
#1522=CARTESIAN_POINT('Origin',(500.,35.,0.));
#1523=CARTESIAN_POINT('',(0.,0.,0.));
#1524=CARTESIAN_POINT('Origin',(300.,70.,0.));
#1525=CARTESIAN_POINT('',(300.,140.,0.));
#1526=CARTESIAN_POINT('',(300.,70.,0.));
#1527=CARTESIAN_POINT('',(300.,140.,0.));
#1528=CARTESIAN_POINT('',(300.,140.,38.));
#1529=CARTESIAN_POINT('',(300.,140.,0.));
#1530=CARTESIAN_POINT('',(300.,70.,38.));
#1531=CARTESIAN_POINT('',(300.,140.,38.));
#1532=CARTESIAN_POINT('',(300.,70.,0.));
#1533=CARTESIAN_POINT('Origin',(0.,70.,0.));
#1534=CARTESIAN_POINT('',(0.,70.,0.));
#1535=CARTESIAN_POINT('',(300.,70.,0.));
#1536=CARTESIAN_POINT('',(0.,70.,38.));
#1537=CARTESIAN_POINT('',(300.,70.,38.));
#1538=CARTESIAN_POINT('',(0.,70.,0.));
#1539=CARTESIAN_POINT('Origin',(0.,140.,0.));
#1540=CARTESIAN_POINT('',(0.,140.,0.));
#1541=CARTESIAN_POINT('',(0.,70.,0.));
#1542=CARTESIAN_POINT('',(0.,140.,38.));
#1543=CARTESIAN_POINT('',(0.,70.,38.));
#1544=CARTESIAN_POINT('',(0.,140.,0.));
#1545=CARTESIAN_POINT('Origin',(300.,140.,0.));
#1546=CARTESIAN_POINT('',(1000.,140.,0.));
#1547=CARTESIAN_POINT('',(1000.,140.,38.));
#1548=CARTESIAN_POINT('Origin',(150.,105.,38.));
#1549=CARTESIAN_POINT('Origin',(150.,105.,0.));
#1550=CARTESIAN_POINT('',(0.,0.,0.));
#1551=CARTESIAN_POINT('Origin',(1300.,0.,0.));
#1552=CARTESIAN_POINT('',(1300.,0.,0.));
#1553=CARTESIAN_POINT('',(1300.,70.,0.));
#1554=CARTESIAN_POINT('',(1300.,0.,0.));
#1555=CARTESIAN_POINT('',(1300.,70.,38.));
#1556=CARTESIAN_POINT('',(1300.,70.,0.));
#1557=CARTESIAN_POINT('',(1300.,0.,38.));
#1558=CARTESIAN_POINT('',(1300.,0.,38.));
#1559=CARTESIAN_POINT('',(1300.,0.,0.));
#1560=CARTESIAN_POINT('Origin',(1000.,0.,0.));
#1561=CARTESIAN_POINT('',(1000.,0.,0.));
#1562=CARTESIAN_POINT('',(1000.,0.,0.));
#1563=CARTESIAN_POINT('',(1000.,0.,38.));
#1564=CARTESIAN_POINT('',(1000.,0.,38.));
#1565=CARTESIAN_POINT('',(1000.,0.,0.));
#1566=CARTESIAN_POINT('Origin',(1000.,70.,0.));
#1567=CARTESIAN_POINT('',(1000.,70.,0.));
#1568=CARTESIAN_POINT('',(1000.,70.,0.));
#1569=CARTESIAN_POINT('',(1000.,70.,38.));
#1570=CARTESIAN_POINT('',(1000.,70.,38.));
#1571=CARTESIAN_POINT('',(1000.,70.,0.));
#1572=CARTESIAN_POINT('Origin',(1300.,70.,0.));
#1573=CARTESIAN_POINT('',(1300.,70.,0.));
#1574=CARTESIAN_POINT('',(1300.,70.,38.));
#1575=CARTESIAN_POINT('Origin',(1150.,35.,38.));
#1576=CARTESIAN_POINT('Origin',(1150.,35.,0.));
#1577=CARTESIAN_POINT('',(0.,0.,0.));
#1578=CARTESIAN_POINT('Origin',(1300.,70.,0.));
#1579=CARTESIAN_POINT('',(1300.,70.,0.));
#1580=CARTESIAN_POINT('',(1300.,140.,0.));
#1581=CARTESIAN_POINT('',(1300.,70.,0.));
#1582=CARTESIAN_POINT('',(1300.,140.,38.));
#1583=CARTESIAN_POINT('',(1300.,140.,0.));
#1584=CARTESIAN_POINT('',(1300.,70.,38.));
#1585=CARTESIAN_POINT('',(1300.,70.,38.));
#1586=CARTESIAN_POINT('',(1300.,70.,0.));
#1587=CARTESIAN_POINT('Origin',(300.,70.,0.));
#1588=CARTESIAN_POINT('',(300.,70.,0.));
#1589=CARTESIAN_POINT('',(300.,70.,0.));
#1590=CARTESIAN_POINT('',(300.,70.,38.));
#1591=CARTESIAN_POINT('',(300.,70.,38.));
#1592=CARTESIAN_POINT('',(300.,70.,0.));
#1593=CARTESIAN_POINT('Origin',(300.,140.,0.));
#1594=CARTESIAN_POINT('',(300.,140.,0.));
#1595=CARTESIAN_POINT('',(300.,140.,0.));
#1596=CARTESIAN_POINT('',(300.,140.,38.));
#1597=CARTESIAN_POINT('',(300.,140.,38.));
#1598=CARTESIAN_POINT('',(300.,140.,0.));
#1599=CARTESIAN_POINT('Origin',(1300.,140.,0.));
#1600=CARTESIAN_POINT('',(1300.,140.,0.));
#1601=CARTESIAN_POINT('',(1300.,140.,38.));
#1602=CARTESIAN_POINT('Origin',(800.,105.,38.));
#1603=CARTESIAN_POINT('Origin',(800.,105.,0.));
#1604=CARTESIAN_POINT('',(0.,0.,0.));
#1605=CARTESIAN_POINT('Origin',(1300.,280.,0.));
#1606=CARTESIAN_POINT('',(1300.,280.,0.));
#1607=CARTESIAN_POINT('',(1300.,350.,0.));
#1608=CARTESIAN_POINT('',(1300.,280.,0.));
#1609=CARTESIAN_POINT('',(1300.,350.,38.));
#1610=CARTESIAN_POINT('',(1300.,350.,0.));
#1611=CARTESIAN_POINT('',(1300.,280.,38.));
#1612=CARTESIAN_POINT('',(1300.,280.,38.));
#1613=CARTESIAN_POINT('',(1300.,280.,0.));
#1614=CARTESIAN_POINT('Origin',(1000.,280.,0.));
#1615=CARTESIAN_POINT('',(1000.,280.,0.));
#1616=CARTESIAN_POINT('',(1000.,280.,0.));
#1617=CARTESIAN_POINT('',(1000.,280.,38.));
#1618=CARTESIAN_POINT('',(1000.,280.,38.));
#1619=CARTESIAN_POINT('',(1000.,280.,0.));
#1620=CARTESIAN_POINT('Origin',(1000.,350.,0.));
#1621=CARTESIAN_POINT('',(1000.,350.,0.));
#1622=CARTESIAN_POINT('',(1000.,350.,0.));
#1623=CARTESIAN_POINT('',(1000.,350.,38.));
#1624=CARTESIAN_POINT('',(1000.,350.,38.));
#1625=CARTESIAN_POINT('',(1000.,350.,0.));
#1626=CARTESIAN_POINT('Origin',(1300.,350.,0.));
#1627=CARTESIAN_POINT('',(1300.,350.,0.));
#1628=CARTESIAN_POINT('',(1300.,350.,38.));
#1629=CARTESIAN_POINT('Origin',(1150.,315.,38.));
#1630=CARTESIAN_POINT('Origin',(1150.,315.,0.));
#1631=CARTESIAN_POINT('',(0.,0.,0.));
#1632=CARTESIAN_POINT('Origin',(1300.,210.,0.));
#1633=CARTESIAN_POINT('',(1000.,210.,0.));
#1634=CARTESIAN_POINT('',(1300.,210.,0.));
#1635=CARTESIAN_POINT('',(1000.,210.,0.));
#1636=CARTESIAN_POINT('',(1000.,210.,38.));
#1637=CARTESIAN_POINT('',(1000.,210.,0.));
#1638=CARTESIAN_POINT('',(1300.,210.,38.));
#1639=CARTESIAN_POINT('',(1000.,210.,38.));
#1640=CARTESIAN_POINT('',(1300.,210.,0.));
#1641=CARTESIAN_POINT('Origin',(1300.,140.,0.));
#1642=CARTESIAN_POINT('',(1300.,140.,0.));
#1643=CARTESIAN_POINT('',(1300.,210.,0.));
#1644=CARTESIAN_POINT('',(1300.,140.,38.));
#1645=CARTESIAN_POINT('',(1300.,210.,38.));
#1646=CARTESIAN_POINT('',(1300.,140.,0.));
#1647=CARTESIAN_POINT('Origin',(1000.,140.,0.));
#1648=CARTESIAN_POINT('',(1000.,140.,0.));
#1649=CARTESIAN_POINT('',(1300.,140.,0.));
#1650=CARTESIAN_POINT('',(1000.,140.,38.));
#1651=CARTESIAN_POINT('',(1300.,140.,38.));
#1652=CARTESIAN_POINT('',(1000.,140.,0.));
#1653=CARTESIAN_POINT('Origin',(1000.,210.,0.));
#1654=CARTESIAN_POINT('',(1000.,140.,0.));
#1655=CARTESIAN_POINT('',(1000.,140.,38.));
#1656=CARTESIAN_POINT('Origin',(1150.,175.,38.));
#1657=CARTESIAN_POINT('Origin',(1150.,175.,0.));
#1658=CARTESIAN_POINT('',(0.,0.,0.));
#1659=CARTESIAN_POINT('Origin',(1300.,210.,0.));
#1660=CARTESIAN_POINT('',(1300.,210.,0.));
#1661=CARTESIAN_POINT('',(1300.,280.,0.));
#1662=CARTESIAN_POINT('',(1300.,210.,0.));
#1663=CARTESIAN_POINT('',(1300.,280.,38.));
#1664=CARTESIAN_POINT('',(1300.,280.,0.));
#1665=CARTESIAN_POINT('',(1300.,210.,38.));
#1666=CARTESIAN_POINT('',(1300.,210.,38.));
#1667=CARTESIAN_POINT('',(1300.,210.,0.));
#1668=CARTESIAN_POINT('Origin',(300.,210.,0.));
#1669=CARTESIAN_POINT('',(300.,210.,0.));
#1670=CARTESIAN_POINT('',(300.,210.,0.));
#1671=CARTESIAN_POINT('',(300.,210.,38.));
#1672=CARTESIAN_POINT('',(300.,210.,38.));
#1673=CARTESIAN_POINT('',(300.,210.,0.));
#1674=CARTESIAN_POINT('Origin',(300.,280.,0.));
#1675=CARTESIAN_POINT('',(300.,280.,0.));
#1676=CARTESIAN_POINT('',(300.,280.,0.));
#1677=CARTESIAN_POINT('',(300.,280.,38.));
#1678=CARTESIAN_POINT('',(300.,280.,38.));
#1679=CARTESIAN_POINT('',(300.,280.,0.));
#1680=CARTESIAN_POINT('Origin',(1300.,280.,0.));
#1681=CARTESIAN_POINT('',(1300.,280.,0.));
#1682=CARTESIAN_POINT('',(1300.,280.,38.));
#1683=CARTESIAN_POINT('Origin',(800.,245.,38.));
#1684=CARTESIAN_POINT('Origin',(800.,245.,0.));
#1685=CARTESIAN_POINT('',(0.,0.,0.));
#1686=CARTESIAN_POINT('Origin',(0.,210.,0.));
#1687=CARTESIAN_POINT('',(0.,140.,0.));
#1688=CARTESIAN_POINT('',(0.,210.,0.));
#1689=CARTESIAN_POINT('',(0.,140.,0.));
#1690=CARTESIAN_POINT('',(0.,140.,38.));
#1691=CARTESIAN_POINT('',(0.,140.,0.));
#1692=CARTESIAN_POINT('',(0.,210.,38.));
#1693=CARTESIAN_POINT('',(0.,140.,38.));
#1694=CARTESIAN_POINT('',(0.,210.,0.));
#1695=CARTESIAN_POINT('Origin',(1000.,210.,0.));
#1696=CARTESIAN_POINT('',(1000.,210.,0.));
#1697=CARTESIAN_POINT('',(300.,210.,0.));
#1698=CARTESIAN_POINT('',(1000.,210.,38.));
#1699=CARTESIAN_POINT('',(300.,210.,38.));
#1700=CARTESIAN_POINT('',(1000.,210.,0.));
#1701=CARTESIAN_POINT('Origin',(1000.,140.,0.));
#1702=CARTESIAN_POINT('',(1000.,140.,0.));
#1703=CARTESIAN_POINT('',(1000.,140.,0.));
#1704=CARTESIAN_POINT('',(1000.,140.,38.));
#1705=CARTESIAN_POINT('',(1000.,140.,38.));
#1706=CARTESIAN_POINT('',(1000.,140.,0.));
#1707=CARTESIAN_POINT('Origin',(0.,140.,0.));
#1708=CARTESIAN_POINT('',(1300.,140.,0.));
#1709=CARTESIAN_POINT('',(1300.,140.,38.));
#1710=CARTESIAN_POINT('Origin',(500.,175.,38.));
#1711=CARTESIAN_POINT('Origin',(500.,175.,0.));
#1712=CARTESIAN_POINT('',(0.,0.,0.));
#1713=CARTESIAN_POINT('Origin',(1000.,280.,0.));
#1714=CARTESIAN_POINT('',(1000.,350.,0.));
#1715=CARTESIAN_POINT('',(1000.,280.,0.));
#1716=CARTESIAN_POINT('',(1000.,350.,0.));
#1717=CARTESIAN_POINT('',(1000.,350.,38.));
#1718=CARTESIAN_POINT('',(1000.,350.,0.));
#1719=CARTESIAN_POINT('',(1000.,280.,38.));
#1720=CARTESIAN_POINT('',(1000.,350.,38.));
#1721=CARTESIAN_POINT('',(1000.,280.,0.));
#1722=CARTESIAN_POINT('Origin',(0.,280.,0.));
#1723=CARTESIAN_POINT('',(0.,280.,0.));
#1724=CARTESIAN_POINT('',(1000.,280.,0.));
#1725=CARTESIAN_POINT('',(0.,280.,38.));
#1726=CARTESIAN_POINT('',(1000.,280.,38.));
#1727=CARTESIAN_POINT('',(0.,280.,0.));
#1728=CARTESIAN_POINT('Origin',(0.,350.,0.));
#1729=CARTESIAN_POINT('',(0.,350.,0.));
#1730=CARTESIAN_POINT('',(0.,280.,0.));
#1731=CARTESIAN_POINT('',(0.,350.,38.));
#1732=CARTESIAN_POINT('',(0.,280.,38.));
#1733=CARTESIAN_POINT('',(0.,350.,0.));
#1734=CARTESIAN_POINT('Origin',(1000.,350.,0.));
#1735=CARTESIAN_POINT('',(0.,350.,0.));
#1736=CARTESIAN_POINT('',(0.,350.,38.));
#1737=CARTESIAN_POINT('Origin',(500.,315.,38.));
#1738=CARTESIAN_POINT('Origin',(500.,315.,0.));
#1739=CARTESIAN_POINT('',(0.,0.,0.));
#1740=CARTESIAN_POINT('Origin',(300.,210.,0.));
#1741=CARTESIAN_POINT('',(300.,280.,0.));
#1742=CARTESIAN_POINT('',(300.,210.,0.));
#1743=CARTESIAN_POINT('',(300.,280.,0.));
#1744=CARTESIAN_POINT('',(300.,280.,38.));
#1745=CARTESIAN_POINT('',(300.,280.,0.));
#1746=CARTESIAN_POINT('',(300.,210.,38.));
#1747=CARTESIAN_POINT('',(300.,280.,38.));
#1748=CARTESIAN_POINT('',(300.,210.,0.));
#1749=CARTESIAN_POINT('Origin',(0.,210.,0.));
#1750=CARTESIAN_POINT('',(0.,210.,0.));
#1751=CARTESIAN_POINT('',(300.,210.,0.));
#1752=CARTESIAN_POINT('',(0.,210.,38.));
#1753=CARTESIAN_POINT('',(300.,210.,38.));
#1754=CARTESIAN_POINT('',(0.,210.,0.));
#1755=CARTESIAN_POINT('Origin',(0.,280.,0.));
#1756=CARTESIAN_POINT('',(0.,280.,0.));
#1757=CARTESIAN_POINT('',(0.,210.,0.));
#1758=CARTESIAN_POINT('',(0.,280.,38.));
#1759=CARTESIAN_POINT('',(0.,210.,38.));
#1760=CARTESIAN_POINT('',(0.,280.,0.));
#1761=CARTESIAN_POINT('Origin',(300.,280.,0.));
#1762=CARTESIAN_POINT('',(1000.,280.,0.));
#1763=CARTESIAN_POINT('',(1000.,280.,38.));
#1764=CARTESIAN_POINT('Origin',(150.,245.,38.));
#1765=CARTESIAN_POINT('Origin',(150.,245.,0.));
#1766=CARTESIAN_POINT('',(0.,0.,0.));
#1767=CARTESIAN_POINT('',(0.,0.,0.));
#1768=CARTESIAN_POINT('',(0.,0.,0.));
#1769=CARTESIAN_POINT('',(0.,0.,0.));
#1770=CARTESIAN_POINT('',(0.,0.,0.));
#1771=CARTESIAN_POINT('',(0.,0.,0.));
#1772=CARTESIAN_POINT('',(0.,0.,0.));
#1773=CARTESIAN_POINT('',(0.,0.,0.));
#1774=CARTESIAN_POINT('',(0.,0.,0.));
#1775=CARTESIAN_POINT('',(0.,0.,0.));
#1776=UNCERTAINTY_MEASURE_WITH_UNIT(LENGTH_MEASURE(0.01),#1800,
'DISTANCE_ACCURACY_VALUE',
'Maximum model space distance between geometric entities at asserted c
onnectivities');
#1777=UNCERTAINTY_MEASURE_WITH_UNIT(LENGTH_MEASURE(0.01),#1800,
'DISTANCE_ACCURACY_VALUE',
'Maximum model space distance between geometric entities at asserted c
onnectivities');
#1778=UNCERTAINTY_MEASURE_WITH_UNIT(LENGTH_MEASURE(0.01),#1800,
'DISTANCE_ACCURACY_VALUE',
'Maximum model space distance between geometric entities at asserted c
onnectivities');
#1779=UNCERTAINTY_MEASURE_WITH_UNIT(LENGTH_MEASURE(0.01),#1800,
'DISTANCE_ACCURACY_VALUE',
'Maximum model space distance between geometric entities at asserted c
onnectivities');
#1780=UNCERTAINTY_MEASURE_WITH_UNIT(LENGTH_MEASURE(0.01),#1800,
'DISTANCE_ACCURACY_VALUE',
'Maximum model space distance between geometric entities at asserted c
onnectivities');
#1781=UNCERTAINTY_MEASURE_WITH_UNIT(LENGTH_MEASURE(0.01),#1800,
'DISTANCE_ACCURACY_VALUE',
'Maximum model space distance between geometric entities at asserted c
onnectivities');
#1782=UNCERTAINTY_MEASURE_WITH_UNIT(LENGTH_MEASURE(0.01),#1800,
'DISTANCE_ACCURACY_VALUE',
'Maximum model space distance between geometric entities at asserted c
onnectivities');
#1783=UNCERTAINTY_MEASURE_WITH_UNIT(LENGTH_MEASURE(0.01),#1800,
'DISTANCE_ACCURACY_VALUE',
'Maximum model space distance between geometric entities at asserted c
onnectivities');
#1784=UNCERTAINTY_MEASURE_WITH_UNIT(LENGTH_MEASURE(0.01),#1800,
'DISTANCE_ACCURACY_VALUE',
'Maximum model space distance between geometric entities at asserted c
onnectivities');
#1785=UNCERTAINTY_MEASURE_WITH_UNIT(LENGTH_MEASURE(0.01),#1800,
'DISTANCE_ACCURACY_VALUE',
'Maximum model space distance between geometric entities at asserted c
onnectivities');
#1786=UNCERTAINTY_MEASURE_WITH_UNIT(LENGTH_MEASURE(0.01),#1800,
'DISTANCE_ACCURACY_VALUE',
'Maximum model space distance between geometric entities at asserted c
onnectivities');
#1787=UNCERTAINTY_MEASURE_WITH_UNIT(LENGTH_MEASURE(0.01),#1800,
'DISTANCE_ACCURACY_VALUE',
'Maximum model space distance between geometric entities at asserted c
onnectivities');
#1788=(
GEOMETRIC_REPRESENTATION_CONTEXT(3)
GLOBAL_UNCERTAINTY_ASSIGNED_CONTEXT((#1776))
GLOBAL_UNIT_ASSIGNED_CONTEXT((#1800,#1802,#1803))
REPRESENTATION_CONTEXT('','3D')
);
#1789=(
GEOMETRIC_REPRESENTATION_CONTEXT(3)
GLOBAL_UNCERTAINTY_ASSIGNED_CONTEXT((#1777))
GLOBAL_UNIT_ASSIGNED_CONTEXT((#1800,#1802,#1803))
REPRESENTATION_CONTEXT('','3D')
);
#1790=(
GEOMETRIC_REPRESENTATION_CONTEXT(3)
GLOBAL_UNCERTAINTY_ASSIGNED_CONTEXT((#1778))
GLOBAL_UNIT_ASSIGNED_CONTEXT((#1800,#1802,#1803))
REPRESENTATION_CONTEXT('','3D')
);
#1791=(
GEOMETRIC_REPRESENTATION_CONTEXT(3)
GLOBAL_UNCERTAINTY_ASSIGNED_CONTEXT((#1779))
GLOBAL_UNIT_ASSIGNED_CONTEXT((#1800,#1802,#1803))
REPRESENTATION_CONTEXT('','3D')
);
#1792=(
GEOMETRIC_REPRESENTATION_CONTEXT(3)
GLOBAL_UNCERTAINTY_ASSIGNED_CONTEXT((#1780))
GLOBAL_UNIT_ASSIGNED_CONTEXT((#1800,#1802,#1803))
REPRESENTATION_CONTEXT('','3D')
);
#1793=(
GEOMETRIC_REPRESENTATION_CONTEXT(3)
GLOBAL_UNCERTAINTY_ASSIGNED_CONTEXT((#1781))
GLOBAL_UNIT_ASSIGNED_CONTEXT((#1800,#1802,#1803))
REPRESENTATION_CONTEXT('','3D')
);
#1794=(
GEOMETRIC_REPRESENTATION_CONTEXT(3)
GLOBAL_UNCERTAINTY_ASSIGNED_CONTEXT((#1782))
GLOBAL_UNIT_ASSIGNED_CONTEXT((#1800,#1802,#1803))
REPRESENTATION_CONTEXT('','3D')
);
#1795=(
GEOMETRIC_REPRESENTATION_CONTEXT(3)
GLOBAL_UNCERTAINTY_ASSIGNED_CONTEXT((#1783))
GLOBAL_UNIT_ASSIGNED_CONTEXT((#1800,#1802,#1803))
REPRESENTATION_CONTEXT('','3D')
);
#1796=(
GEOMETRIC_REPRESENTATION_CONTEXT(3)
GLOBAL_UNCERTAINTY_ASSIGNED_CONTEXT((#1784))
GLOBAL_UNIT_ASSIGNED_CONTEXT((#1800,#1802,#1803))
REPRESENTATION_CONTEXT('','3D')
);
#1797=(
GEOMETRIC_REPRESENTATION_CONTEXT(3)
GLOBAL_UNCERTAINTY_ASSIGNED_CONTEXT((#1785))
GLOBAL_UNIT_ASSIGNED_CONTEXT((#1800,#1802,#1803))
REPRESENTATION_CONTEXT('','3D')
);
#1798=(
GEOMETRIC_REPRESENTATION_CONTEXT(3)
GLOBAL_UNCERTAINTY_ASSIGNED_CONTEXT((#1786))
GLOBAL_UNIT_ASSIGNED_CONTEXT((#1800,#1802,#1803))
REPRESENTATION_CONTEXT('','3D')
);
#1799=(
GEOMETRIC_REPRESENTATION_CONTEXT(3)
GLOBAL_UNCERTAINTY_ASSIGNED_CONTEXT((#1787))
GLOBAL_UNIT_ASSIGNED_CONTEXT((#1800,#1802,#1803))
REPRESENTATION_CONTEXT('','3D')
);
#1800=(
LENGTH_UNIT()
NAMED_UNIT(*)
SI_UNIT(.MILLI.,.METRE.)
);
#1801=(
LENGTH_UNIT()
NAMED_UNIT(*)
SI_UNIT($,.METRE.)
);
#1802=(
NAMED_UNIT(*)
PLANE_ANGLE_UNIT()
SI_UNIT($,.RADIAN.)
);
#1803=(
NAMED_UNIT(*)
SI_UNIT($,.STERADIAN.)
SOLID_ANGLE_UNIT()
);
#1804=SHAPE_DEFINITION_REPRESENTATION(#1815,#1836);
#1805=SHAPE_DEFINITION_REPRESENTATION(#1816,#1837);
#1806=SHAPE_DEFINITION_REPRESENTATION(#1817,#1838);
#1807=SHAPE_DEFINITION_REPRESENTATION(#1818,#1839);
#1808=SHAPE_DEFINITION_REPRESENTATION(#1819,#1840);
#1809=SHAPE_DEFINITION_REPRESENTATION(#1820,#1841);
#1810=SHAPE_DEFINITION_REPRESENTATION(#1821,#1842);
#1811=SHAPE_DEFINITION_REPRESENTATION(#1822,#1843);
#1812=SHAPE_DEFINITION_REPRESENTATION(#1823,#1844);
#1813=SHAPE_DEFINITION_REPRESENTATION(#1824,#1845);
#1814=SHAPE_DEFINITION_REPRESENTATION(#1825,#1846);
#1815=PRODUCT_DEFINITION_SHAPE('',$,#1848);
#1816=PRODUCT_DEFINITION_SHAPE('',$,#1849);
#1817=PRODUCT_DEFINITION_SHAPE('',$,#1850);
#1818=PRODUCT_DEFINITION_SHAPE('',$,#1851);
#1819=PRODUCT_DEFINITION_SHAPE('',$,#1852);
#1820=PRODUCT_DEFINITION_SHAPE('',$,#1853);
#1821=PRODUCT_DEFINITION_SHAPE('',$,#1854);
#1822=PRODUCT_DEFINITION_SHAPE('',$,#1855);
#1823=PRODUCT_DEFINITION_SHAPE('',$,#1856);
#1824=PRODUCT_DEFINITION_SHAPE('',$,#1857);
#1825=PRODUCT_DEFINITION_SHAPE('',$,#1858);
#1826=PRODUCT_DEFINITION_SHAPE($,$,#41);
#1827=PRODUCT_DEFINITION_SHAPE($,$,#42);
#1828=PRODUCT_DEFINITION_SHAPE($,$,#43);
#1829=PRODUCT_DEFINITION_SHAPE($,$,#44);
#1830=PRODUCT_DEFINITION_SHAPE($,$,#45);
#1831=PRODUCT_DEFINITION_SHAPE($,$,#46);
#1832=PRODUCT_DEFINITION_SHAPE($,$,#47);
#1833=PRODUCT_DEFINITION_SHAPE($,$,#48);
#1834=PRODUCT_DEFINITION_SHAPE($,$,#49);
#1835=PRODUCT_DEFINITION_SHAPE($,$,#50);
#1836=SHAPE_REPRESENTATION('',(#1132,#1203,#1204,#1205,#1206,#1207,#1208,
#1209,#1210,#1211,#1212),#1788);
#1837=SHAPE_REPRESENTATION('',(#1133),#1789);
#1838=SHAPE_REPRESENTATION('',(#1140),#1790);
#1839=SHAPE_REPRESENTATION('',(#1147),#1791);
#1840=SHAPE_REPRESENTATION('',(#1154),#1792);
#1841=SHAPE_REPRESENTATION('',(#1161),#1793);
#1842=SHAPE_REPRESENTATION('',(#1168),#1794);
#1843=SHAPE_REPRESENTATION('',(#1175),#1795);
#1844=SHAPE_REPRESENTATION('',(#1182),#1796);
#1845=SHAPE_REPRESENTATION('',(#1189),#1797);
#1846=SHAPE_REPRESENTATION('',(#1196),#1798);
#1847=PRODUCT_DEFINITION_CONTEXT('part definition',#1882,'design');
#1848=PRODUCT_DEFINITION('plateau vf2','plateau vf2 v2',#1859,#1847);
#1849=PRODUCT_DEFINITION('Composant1','Composant1',#1860,#1847);
#1850=PRODUCT_DEFINITION('Composant2','Composant2',#1861,#1847);
#1851=PRODUCT_DEFINITION('Composant3','Composant3',#1862,#1847);
#1852=PRODUCT_DEFINITION('Composant4','Composant4',#1863,#1847);
#1853=PRODUCT_DEFINITION('Composant5','Composant5',#1864,#1847);
#1854=PRODUCT_DEFINITION('Composant6','Composant6',#1865,#1847);
#1855=PRODUCT_DEFINITION('Composant7','Composant7',#1866,#1847);
#1856=PRODUCT_DEFINITION('Composant8','Composant8',#1867,#1847);
#1857=PRODUCT_DEFINITION('Composant9','Composant9',#1868,#1847);
#1858=PRODUCT_DEFINITION('Composant10','Composant10',#1869,#1847);
#1859=PRODUCT_DEFINITION_FORMATION('',$,#1884);
#1860=PRODUCT_DEFINITION_FORMATION('',$,#1885);
#1861=PRODUCT_DEFINITION_FORMATION('',$,#1886);
#1862=PRODUCT_DEFINITION_FORMATION('',$,#1887);
#1863=PRODUCT_DEFINITION_FORMATION('',$,#1888);
#1864=PRODUCT_DEFINITION_FORMATION('',$,#1889);
#1865=PRODUCT_DEFINITION_FORMATION('',$,#1890);
#1866=PRODUCT_DEFINITION_FORMATION('',$,#1891);
#1867=PRODUCT_DEFINITION_FORMATION('',$,#1892);
#1868=PRODUCT_DEFINITION_FORMATION('',$,#1893);
#1869=PRODUCT_DEFINITION_FORMATION('',$,#1894);
#1870=PRODUCT_RELATED_PRODUCT_CATEGORY('plateau vf2 v2',
'plateau vf2 v2',(#1884));
#1871=PRODUCT_RELATED_PRODUCT_CATEGORY('Composant1','Composant1',(#1885));
#1872=PRODUCT_RELATED_PRODUCT_CATEGORY('Composant2','Composant2',(#1886));
#1873=PRODUCT_RELATED_PRODUCT_CATEGORY('Composant3','Composant3',(#1887));
#1874=PRODUCT_RELATED_PRODUCT_CATEGORY('Composant4','Composant4',(#1888));
#1875=PRODUCT_RELATED_PRODUCT_CATEGORY('Composant5','Composant5',(#1889));
#1876=PRODUCT_RELATED_PRODUCT_CATEGORY('Composant6','Composant6',(#1890));
#1877=PRODUCT_RELATED_PRODUCT_CATEGORY('Composant7','Composant7',(#1891));
#1878=PRODUCT_RELATED_PRODUCT_CATEGORY('Composant8','Composant8',(#1892));
#1879=PRODUCT_RELATED_PRODUCT_CATEGORY('Composant9','Composant9',(#1893));
#1880=PRODUCT_RELATED_PRODUCT_CATEGORY('Composant10','Composant10',(#1894));
#1881=APPLICATION_PROTOCOL_DEFINITION('international standard',
'automotive_design',2009,#1882);
#1882=APPLICATION_CONTEXT(
'Core Data for Automotive Mechanical Design Process');
#1883=PRODUCT_CONTEXT('part definition',#1882,'mechanical');
#1884=PRODUCT('plateau vf2','plateau vf2 v2',$,(#1883));
#1885=PRODUCT('Composant1','Composant1',$,(#1883));
#1886=PRODUCT('Composant2','Composant2',$,(#1883));
#1887=PRODUCT('Composant3','Composant3',$,(#1883));
#1888=PRODUCT('Composant4','Composant4',$,(#1883));
#1889=PRODUCT('Composant5','Composant5',$,(#1883));
#1890=PRODUCT('Composant6','Composant6',$,(#1883));
#1891=PRODUCT('Composant7','Composant7',$,(#1883));
#1892=PRODUCT('Composant8','Composant8',$,(#1883));
#1893=PRODUCT('Composant9','Composant9',$,(#1883));
#1894=PRODUCT('Composant10','Composant10',$,(#1883));
#1895=PRESENTATION_STYLE_ASSIGNMENT((#1896));
#1896=SURFACE_STYLE_USAGE(.BOTH.,#1897);
#1897=SURFACE_SIDE_STYLE('',(#1898));
#1898=SURFACE_STYLE_FILL_AREA(#1899);
#1899=FILL_AREA_STYLE('Acier - Satin\X\E9',(#1900));
#1900=FILL_AREA_STYLE_COLOUR('Acier - Satin\X\E9',#1901);
#1901=COLOUR_RGB('Acier - Satin\X\E9',0.627450980392157,0.627450980392157,
0.627450980392157);
ENDSEC;
END-ISO-10303-21;
